<svg xmlns="http://www.w3.org/2000/svg" xmlns:xlink="http://www.w3.org/1999/xlink" width="704" zoomAndPan="magnify" viewBox="0 0 528 419.249996" height="559" preserveAspectRatio="xMidYMid meet" version="1.0"><path fill="#ffffff" d="M 422.773438 356.648438 C 422.773438 356.648438 432.832031 372.375 425.539062 379.183594 C 419.941406 384.40625 416.191406 387.054688 409.230469 393.863281 C 402.273438 400.667969 379.136719 405.964844 368.996094 397.335938 C 358.867188 388.71875 399.980469 357.03125 399.980469 357.03125 Z M 463.109375 352.125 C 463.109375 352.125 453.050781 367.851562 460.34375 374.660156 C 465.941406 379.882812 469.691406 382.53125 476.648438 389.339844 C 483.609375 396.144531 506.746094 401.441406 516.886719 392.8125 C 527.015625 384.195312 485.898438 352.507812 485.898438 352.507812 Z M 463.109375 352.125 " fill-opacity="1" fill-rule="nonzero"/><path fill="#000000" d="M 401.457031 372.554688 C 401.179688 372.554688 400.90625 372.421875 400.726562 372.179688 C 396.648438 366.429688 389.078125 367.152344 389 367.160156 C 388.511719 367.214844 388.074219 366.859375 388.019531 366.367188 C 387.96875 365.878906 388.324219 365.445312 388.8125 365.390625 C 389.167969 365.355469 397.503906 364.566406 402.175781 371.160156 C 402.460938 371.558594 402.363281 372.109375 401.964844 372.394531 C 401.8125 372.5 401.632812 372.554688 401.457031 372.554688 Z M 395.691406 377.8125 C 396.089844 377.53125 396.1875 376.980469 395.902344 376.578125 C 391.230469 369.996094 382.894531 370.777344 382.539062 370.8125 C 382.050781 370.867188 381.695312 371.300781 381.746094 371.789062 C 381.800781 372.277344 382.226562 372.617188 382.726562 372.582031 C 382.804688 372.570312 390.375 371.851562 394.453125 377.601562 C 394.632812 377.851562 394.898438 377.972656 395.183594 377.972656 C 395.359375 377.984375 395.539062 377.929688 395.691406 377.8125 Z M 390.152344 383.5625 C 390.554688 383.277344 390.652344 382.726562 390.367188 382.328125 C 385.691406 375.742188 377.359375 376.527344 377.003906 376.5625 C 376.515625 376.613281 376.160156 377.050781 376.210938 377.539062 C 376.265625 378.027344 376.691406 378.390625 377.1875 378.328125 C 377.269531 378.328125 384.839844 377.601562 388.917969 383.351562 C 389.097656 383.597656 389.363281 383.722656 389.648438 383.722656 C 389.824219 383.722656 390.003906 383.671875 390.152344 383.5625 Z M 485.164062 367.648438 C 489.222656 361.925781 496.820312 362.621094 496.890625 362.628906 C 497.371094 362.664062 497.816406 362.324219 497.871094 361.835938 C 497.921875 361.347656 497.566406 360.914062 497.078125 360.859375 C 496.722656 360.824219 488.386719 360.035156 483.714844 366.625 C 483.429688 367.027344 483.527344 367.578125 483.925781 367.863281 C 484.078125 367.976562 484.265625 368.023438 484.441406 368.023438 C 484.71875 368.023438 484.984375 367.898438 485.164062 367.648438 Z M 491.4375 373.078125 C 495.496094 367.347656 503.09375 368.046875 503.164062 368.058594 C 503.644531 368.09375 504.089844 367.753906 504.144531 367.265625 C 504.195312 366.777344 503.839844 366.34375 503.351562 366.289062 C 502.996094 366.253906 494.660156 365.460938 489.988281 372.046875 C 489.703125 372.445312 489.800781 372.996094 490.199219 373.28125 C 490.351562 373.398438 490.539062 373.441406 490.714844 373.441406 C 490.992188 373.449219 491.257812 373.328125 491.4375 373.078125 Z M 496.972656 378.828125 C 501.03125 373.09375 508.628906 373.796875 508.703125 373.804688 C 509.179688 373.851562 509.625 373.503906 509.679688 373.015625 C 509.730469 372.527344 509.375 372.089844 508.886719 372.039062 C 508.53125 372.003906 500.199219 371.210938 495.523438 377.804688 C 495.238281 378.203125 495.335938 378.757812 495.738281 379.039062 C 495.898438 379.15625 496.074219 379.199219 496.253906 379.199219 C 496.527344 379.199219 496.792969 379.074219 496.972656 378.828125 Z M 459.527344 202.59375 C 460.683594 207.175781 482.648438 295.078125 485.410156 350.597656 C 485.472656 351.8125 484.886719 352.96875 483.867188 353.636719 C 480.710938 355.707031 473.167969 359.382812 463.035156 356.078125 C 461.953125 355.722656 461.125 354.851562 460.804688 353.761719 C 457.351562 341.933594 436.441406 271.136719 423.015625 242.382812 C 422.703125 241.71875 421.699219 241.9375 421.707031 242.675781 C 421.921875 258.777344 422.960938 333.109375 424.242188 355.109375 C 424.328125 356.558594 423.503906 357.902344 422.171875 358.476562 C 417.914062 360.316406 408.226562 363.390625 399.171875 358.265625 C 398.285156 357.765625 397.671875 356.898438 397.484375 355.890625 C 394.75 341.410156 373.199219 226.601562 374.398438 206.839844 C 375.679688 185.796875 450.917969 178.554688 459.410156 202.210938 C 459.464844 202.34375 459.5 202.46875 459.527344 202.59375 Z M 459.527344 202.59375 " fill-opacity="1" fill-rule="nonzero"/><path fill="#bb581c" d="M 386.074219 162.90625 C 386.074219 162.90625 394.292969 214.332031 377.617188 205.710938 C 360.9375 197.089844 363.59375 194.363281 365.40625 192.851562 C 367.21875 191.34375 371.457031 195.101562 371.457031 195.101562 C 368.132812 185.246094 369.191406 172.691406 369.191406 172.691406 Z M 386.074219 162.90625 " fill-opacity="1" fill-rule="nonzero"/><path fill="#7496df" d="M 496.917969 125.398438 C 496.464844 103.167969 476.5 108.835938 476.5 108.835938 C 458.34375 62.550781 413.089844 68.964844 413.089844 68.964844 C 378.941406 70.609375 357.613281 95.222656 357.613281 95.222656 C 357.613281 95.222656 318.816406 136.738281 324.035156 151.828125 C 329.25 166.914062 362.597656 171.910156 362.597656 171.910156 L 366.144531 176.875 C 367.421875 178.664062 369.867188 179.140625 371.722656 177.960938 C 372.65625 177.363281 373.617188 176.699219 374.578125 176.003906 C 374.515625 176.699219 374.453125 177.382812 374.398438 178.039062 C 373.261719 191.652344 375.757812 194.824219 375.757812 194.824219 L 374.398438 206.847656 C 415.914062 224.316406 459.25 203.214844 459.472656 202.40625 C 459.703125 201.597656 455.003906 189.609375 455.003906 189.609375 C 460.28125 185.753906 458.113281 162.160156 458.113281 162.160156 C 487.835938 180.074219 497.371094 147.632812 496.917969 125.398438 Z M 362.609375 137.875 L 375.226562 133.183594 L 378.949219 141.207031 C 378.949219 141.207031 378.371094 145.125 377.617188 150.6875 C 370.578125 142.035156 362.609375 137.875 362.609375 137.875 Z M 362.609375 137.875 " fill-opacity="1" fill-rule="nonzero"/><path fill="#ffffff" d="M 431.375 81.839844 C 431.226562 88.390625 426.480469 100.929688 422.292969 110.773438 C 418.945312 118.644531 415.957031 124.796875 415.957031 124.796875 C 414.519531 123.445312 411.167969 118.503906 407.480469 112.683594 C 401.074219 102.582031 393.628906 89.820312 393.316406 88.566406 C 393.289062 88.425781 393.28125 88.292969 393.289062 88.148438 C 395.203125 64.59375 431.953125 57.554688 431.375 81.839844 Z M 431.375 81.839844 " fill-opacity="1" fill-rule="nonzero"/><path fill="#ffb92a" d="M 422.292969 110.773438 C 418.945312 118.644531 415.957031 124.796875 415.957031 124.796875 C 414.519531 123.445312 411.167969 118.503906 407.480469 112.683594 L 410.246094 97.914062 C 410.289062 97.640625 410.253906 97.363281 410.128906 97.117188 L 405.570312 88.230469 C 405.324219 87.742188 405.429688 87.128906 405.835938 86.753906 L 412.183594 80.820312 C 412.617188 80.417969 413.265625 80.375 413.746094 80.703125 L 421.226562 85.875 C 421.699219 86.203125 421.886719 86.808594 421.679688 87.351562 L 418.207031 96.429688 C 418.101562 96.6875 418.089844 96.972656 418.171875 97.238281 C 418.695312 98.964844 420.785156 105.796875 422.292969 110.773438 Z M 422.292969 110.773438 " fill-opacity="1" fill-rule="nonzero"/><path fill="#ffffff" d="M 411.300781 65.082031 C 432.601562 57.164062 433.472656 81.261719 433.144531 89.703125 C 433.089844 91.152344 431.679688 92.175781 430.246094 91.792969 L 413.90625 87.457031 C 413.390625 87.296875 412.832031 87.324219 412.324219 87.519531 L 396.390625 93.722656 C 394.945312 94.28125 393.328125 93.367188 393.140625 91.855469 C 389.726562 64.425781 407.011719 64.894531 410.234375 65.214844 C 410.609375 65.269531 410.964844 65.207031 411.300781 65.082031 Z M 411.300781 65.082031 " fill-opacity="1" fill-rule="nonzero"/><path fill="#bb581c" d="M 423.191406 58.691406 C 423.140625 58.738281 423.09375 58.773438 423.039062 58.808594 C 423.246094 59.226562 423.421875 59.679688 423.546875 60.140625 L 425.527344 67.464844 C 426.238281 70.074219 425.441406 72.867188 423.457031 74.714844 L 413.753906 83.761719 L 402.949219 77.496094 C 400.480469 76.066406 399.066406 73.320312 399.34375 70.476562 L 400.132812 62.273438 C 400.160156 62.015625 400.203125 61.757812 400.257812 61.5 C 400.230469 61.492188 400.203125 61.484375 400.167969 61.464844 C 399.820312 61.324219 399.484375 61.179688 399.148438 61.03125 C 392.242188 57.992188 387.46875 50.542969 386.644531 42.128906 C 385.3125 28.695312 395.261719 16.316406 407.207031 15.132812 C 419.148438 13.953125 431.03125 23.816406 432.351562 37.25 C 433.019531 43.96875 431.570312 50.890625 427.164062 55.113281 C 425.804688 56.4375 424.5 57.636719 423.191406 58.691406 Z M 423.191406 58.691406 " fill-opacity="1" fill-rule="nonzero"/><path fill="#000000" d="M 389.90625 31.171875 L 388.09375 43.949219 C 388.09375 43.949219 375.234375 40.09375 382.042969 22.019531 C 388.847656 3.945312 397.015625 8.488281 397.015625 8.488281 C 400.800781 0.0898438 407.597656 1.296875 426.585938 8.636719 C 445.574219 15.976562 434.238281 40.574219 430.222656 42.761719 C 426.203125 44.945312 424.925781 23.761719 424.925781 23.761719 C 406.699219 23.53125 403.597656 17.71875 403.597656 17.71875 C 404.132812 21.273438 411.996094 28.535156 407.304688 28 C 402.613281 27.46875 398 17.558594 398 17.558594 C 396.277344 23.914062 389.90625 31.171875 389.90625 31.171875 Z M 412.03125 63.800781 C 407.953125 64.203125 403.847656 62.992188 400.175781 61.472656 C 402.175781 65.535156 406.363281 68.324219 411.195312 68.324219 C 417.070312 68.324219 421.984375 64.191406 423.191406 58.691406 C 419.746094 61.519531 416.359375 63.367188 412.03125 63.800781 Z M 418.527344 31.929688 C 416.777344 31.929688 415.355469 33.351562 415.355469 35.101562 C 415.355469 36.851562 416.777344 38.273438 418.527344 38.273438 C 420.277344 38.273438 421.699219 36.851562 421.699219 35.101562 C 421.707031 33.351562 420.285156 31.929688 418.527344 31.929688 Z M 398.695312 35.667969 C 396.941406 35.667969 395.519531 37.089844 395.519531 38.839844 C 395.519531 40.59375 396.941406 42.015625 398.695312 42.015625 C 400.445312 42.015625 401.867188 40.59375 401.867188 38.839844 C 401.867188 37.089844 400.453125 35.667969 398.695312 35.667969 Z M 398.695312 35.667969 " fill-opacity="1" fill-rule="nonzero"/><path fill="#bb581c" d="M 438.804688 43.828125 C 437.425781 48.351562 433.402344 51.140625 429.804688 50.046875 C 426.203125 48.953125 424.402344 44.40625 425.777344 39.871094 C 427.15625 35.347656 431.179688 32.558594 434.78125 33.652344 C 438.378906 34.746094 440.183594 39.304688 438.804688 43.828125 Z M 383.0625 53.804688 C 385.683594 57.742188 390.339844 59.253906 393.46875 57.171875 C 396.597656 55.09375 397.015625 50.214844 394.402344 46.269531 C 391.78125 42.332031 387.125 40.824219 383.996094 42.902344 C 380.867188 44.980469 380.449219 49.871094 383.0625 53.804688 Z M 383.0625 53.804688 " fill-opacity="1" fill-rule="nonzero"/><path fill="#000000" d="M 421.707031 26.6875 C 421.519531 26.6875 421.335938 26.632812 421.183594 26.507812 C 416.324219 22.910156 411.425781 25.566406 411.222656 25.679688 C 410.796875 25.921875 410.253906 25.769531 410.015625 25.34375 C 409.773438 24.917969 409.925781 24.375 410.351562 24.136719 C 410.601562 23.992188 416.4375 20.785156 422.242188 25.085938 C 422.632812 25.378906 422.722656 25.9375 422.429688 26.332031 C 422.25 26.570312 421.976562 26.6875 421.707031 26.6875 Z M 392.640625 32.808594 C 394.367188 27.761719 399.917969 27.742188 400.175781 27.734375 C 400.640625 27.742188 401.066406 27.34375 401.074219 26.855469 C 401.082031 26.367188 400.683594 25.957031 400.195312 25.957031 C 400.140625 25.957031 393.105469 25.949219 390.960938 32.230469 C 390.800781 32.691406 391.050781 33.199219 391.511719 33.359375 C 391.613281 33.394531 391.710938 33.402344 391.796875 33.402344 C 392.164062 33.402344 392.507812 33.171875 392.640625 32.808594 Z M 430.53125 38.9375 C 431.429688 37.382812 432.378906 36.585938 433.359375 36.558594 C 434.886719 36.53125 436.113281 38.386719 436.121094 38.40625 C 436.253906 38.609375 436.53125 38.671875 436.734375 38.539062 C 436.9375 38.40625 437 38.128906 436.867188 37.925781 C 436.804688 37.828125 435.347656 35.644531 433.339844 35.667969 C 432.023438 35.695312 430.824219 36.65625 429.757812 38.496094 C 429.632812 38.707031 429.714844 38.984375 429.917969 39.097656 C 429.988281 39.136719 430.0625 39.160156 430.140625 39.160156 C 430.300781 39.160156 430.453125 39.082031 430.53125 38.9375 Z M 382.894531 48.652344 C 382.832031 48.652344 382.769531 48.644531 382.707031 48.617188 C 382.484375 48.519531 382.386719 48.25 382.484375 48.03125 C 382.53125 47.933594 383.632812 45.53125 385.648438 45.285156 C 386.945312 45.125 388.277344 45.886719 389.601562 47.558594 C 389.753906 47.753906 389.71875 48.03125 389.53125 48.179688 C 389.335938 48.332031 389.0625 48.296875 388.910156 48.109375 C 387.800781 46.695312 386.742188 46.046875 385.765625 46.164062 C 384.246094 46.351562 383.304688 48.367188 383.292969 48.394531 C 383.222656 48.554688 383.0625 48.652344 382.894531 48.652344 Z M 407.152344 52.234375 C 405.785156 52.234375 404.308594 52.054688 402.726562 51.636719 C 402.488281 51.574219 402.34375 51.328125 402.417969 51.09375 C 402.480469 50.855469 402.726562 50.722656 402.957031 50.785156 C 411.953125 53.183594 417.515625 47.195312 417.566406 47.132812 C 417.726562 46.953125 418.011719 46.9375 418.199219 47.097656 C 418.375 47.265625 418.394531 47.542969 418.234375 47.726562 C 418.171875 47.78125 414.046875 52.234375 407.152344 52.234375 Z M 406.539062 45.078125 C 406.316406 45.078125 406.132812 44.917969 406.09375 44.699219 C 405.847656 42.875 406.167969 41.613281 407.054688 40.949219 C 408.503906 39.855469 410.847656 40.859375 410.945312 40.902344 C 411.167969 41 411.277344 41.265625 411.179688 41.488281 C 411.082031 41.710938 410.824219 41.820312 410.589844 41.722656 C 410.050781 41.480469 408.449219 41.011719 407.589844 41.660156 C 406.976562 42.121094 406.769531 43.105469 406.976562 44.582031 C 407.011719 44.820312 406.84375 45.054688 406.59375 45.078125 C 406.585938 45.070312 406.566406 45.078125 406.539062 45.078125 Z M 406.539062 45.078125 " fill-opacity="1" fill-rule="nonzero"/><path fill="#ffffff" d="M 493.800781 122.414062 C 491.675781 125.410156 486.21875 125.195312 481.617188 121.925781 C 477.015625 118.65625 475.007812 113.582031 477.136719 110.585938 C 479.261719 107.59375 484.71875 107.804688 489.320312 111.074219 C 493.925781 114.335938 495.933594 119.410156 493.800781 122.414062 Z M 493.800781 122.414062 " fill-opacity="1" fill-rule="nonzero"/><path fill="#bb581c" d="M 492.484375 104.578125 C 492.46875 104.917969 492.414062 105.265625 492.351562 105.59375 L 491.089844 117.910156 C 491.089844 117.910156 485.003906 122.972656 479.804688 114.355469 L 479.804688 110.125 C 478.640625 109.421875 477.761719 108.570312 477.40625 107.804688 C 476.035156 104.890625 478.800781 103.621094 478.800781 103.621094 C 478.800781 103.621094 476.171875 103.460938 474.980469 100.867188 C 473.789062 98.269531 476.996094 96.957031 476.996094 96.957031 C 476.996094 96.957031 474.136719 96.519531 473.390625 94.386719 C 472.652344 92.253906 475.078125 90.511719 475.078125 90.511719 C 475.078125 90.511719 472.3125 91.800781 471.84375 87.925781 C 471.53125 85.351562 473.539062 82.800781 477.929688 82.152344 C 475.894531 76.527344 476.464844 70.15625 480.53125 69.953125 C 483.855469 69.78125 484.886719 77.929688 485.207031 82.585938 C 485.570312 82.667969 485.925781 82.738281 486.308594 82.835938 C 492.921875 84.507812 492.804688 98.757812 492.484375 104.578125 Z M 492.484375 104.578125 " fill-opacity="1" fill-rule="nonzero"/><path fill="#000000" d="M 371.234375 178.136719 C 371.371094 178.34375 371.308594 178.617188 371.101562 178.75 C 371.03125 178.796875 370.941406 178.820312 370.863281 178.820312 C 370.710938 178.820312 370.570312 178.75 370.488281 178.617188 L 366.242188 171.925781 C 366.109375 171.722656 366.171875 171.445312 366.375 171.3125 C 366.578125 171.179688 366.855469 171.242188 366.988281 171.445312 Z M 414.652344 197.394531 C 392.25 198.21875 377.890625 194.886719 376.078125 194.445312 C 371.902344 185.601562 377.988281 151.105469 378.050781 150.761719 C 378.097656 150.519531 377.9375 150.289062 377.695312 150.246094 C 377.445312 150.199219 377.226562 150.359375 377.179688 150.601562 C 377.03125 151.445312 374.941406 163.28125 374.089844 174.796875 L 370.632812 168.738281 C 370.507812 168.523438 370.242188 168.453125 370.027344 168.566406 C 369.8125 168.683594 369.742188 168.957031 369.859375 169.171875 L 373.972656 176.386719 C 373.484375 184.074219 373.609375 191.367188 375.316406 194.878906 L 373.964844 206.785156 C 373.9375 207.027344 374.113281 207.25 374.355469 207.273438 C 374.371094 207.273438 374.390625 207.273438 374.40625 207.273438 C 374.628906 207.273438 374.824219 207.105469 374.851562 206.882812 L 376.160156 195.359375 C 378.601562 195.9375 389.992188 198.398438 407.570312 198.398438 C 409.84375 198.398438 412.21875 198.351562 414.6875 198.265625 C 414.9375 198.253906 415.125 198.050781 415.113281 197.800781 C 415.105469 197.582031 414.902344 197.375 414.652344 197.394531 Z M 412.699219 130.128906 C 387.703125 97.035156 383.375 77.503906 383.328125 77.308594 C 383.277344 77.070312 383.046875 76.917969 382.804688 76.960938 C 382.566406 77.015625 382.414062 77.246094 382.457031 77.488281 C 382.503906 77.683594 386.847656 97.339844 411.90625 130.542969 L 415.933594 213.769531 C 415.941406 214.011719 416.136719 214.195312 416.375 214.195312 C 416.386719 214.195312 416.394531 214.195312 416.394531 214.195312 C 416.644531 214.1875 416.828125 213.976562 416.820312 213.734375 L 412.785156 130.375 C 412.777344 130.277344 412.75 130.199219 412.699219 130.128906 Z M 362.847656 137.511719 C 362.597656 137.34375 356.671875 133.546875 348.355469 139.5625 C 348.160156 139.707031 348.113281 139.980469 348.257812 140.1875 C 348.34375 140.308594 348.480469 140.371094 348.621094 140.371094 C 348.710938 140.371094 348.800781 140.347656 348.878906 140.292969 C 356.679688 134.660156 362.136719 138.117188 362.367188 138.257812 C 362.570312 138.390625 362.847656 138.335938 362.980469 138.132812 C 363.113281 137.929688 363.050781 137.644531 362.847656 137.511719 Z M 394.792969 94.34375 C 394.835938 94.34375 394.890625 94.335938 394.933594 94.316406 L 413.933594 87.925781 L 430.140625 92.226562 C 430.378906 92.289062 430.621094 92.148438 430.683594 91.910156 C 430.746094 91.667969 430.601562 91.429688 430.363281 91.367188 L 414.023438 87.03125 C 413.941406 87.011719 413.851562 87.011719 413.765625 87.039062 L 394.640625 93.472656 C 394.410156 93.550781 394.285156 93.800781 394.367188 94.03125 C 394.4375 94.226562 394.605469 94.34375 394.792969 94.34375 Z M 375.351562 134.515625 C 375.429688 134.675781 375.582031 134.765625 375.75 134.765625 C 375.8125 134.765625 375.882812 134.746094 375.945312 134.722656 C 376.167969 134.613281 376.257812 134.347656 376.148438 134.125 L 369.59375 120.664062 C 369.484375 120.441406 369.21875 120.351562 368.996094 120.460938 C 368.773438 120.566406 368.6875 120.832031 368.792969 121.054688 Z M 475.085938 90.964844 C 475.148438 90.964844 475.210938 90.957031 475.273438 90.929688 C 475.316406 90.914062 479.554688 89.03125 484.453125 90.007812 C 484.691406 90.058594 484.921875 89.898438 484.976562 89.660156 C 485.019531 89.421875 484.871094 89.191406 484.628906 89.136719 C 479.441406 88.105469 475.085938 90.042969 474.910156 90.121094 C 474.6875 90.21875 474.589844 90.488281 474.6875 90.710938 C 474.75 90.867188 474.910156 90.964844 475.085938 90.964844 Z M 477.929688 82.542969 C 477.984375 82.542969 482.976562 82.355469 485.082031 83.003906 C 485.128906 83.023438 485.171875 83.023438 485.214844 83.023438 C 485.402344 83.023438 485.582031 82.898438 485.640625 82.710938 C 485.714844 82.480469 485.582031 82.230469 485.347656 82.152344 C 483.101562 81.457031 478.117188 81.636719 477.902344 81.644531 C 477.652344 81.652344 477.46875 81.859375 477.476562 82.105469 C 477.476562 82.355469 477.664062 82.5625 477.929688 82.542969 Z M 418.136719 96.394531 C 417.941406 96.359375 413.25 95.535156 410.128906 97.097656 C 409.90625 97.203125 409.820312 97.472656 409.933594 97.695312 C 410.015625 97.851562 410.164062 97.941406 410.335938 97.941406 C 410.40625 97.941406 410.46875 97.925781 410.53125 97.898438 C 413.382812 96.46875 417.929688 97.265625 417.984375 97.277344 C 418.226562 97.320312 418.457031 97.160156 418.5 96.921875 C 418.535156 96.671875 418.375 96.441406 418.136719 96.394531 Z M 476.828125 96.554688 C 476.605469 96.652344 476.488281 96.910156 476.585938 97.132812 C 476.660156 97.300781 476.828125 97.410156 476.996094 97.410156 C 477.050781 97.410156 477.113281 97.398438 477.164062 97.375 C 477.210938 97.355469 481.875 95.445312 485.242188 96.964844 C 485.464844 97.0625 485.730469 96.964844 485.828125 96.742188 C 485.925781 96.519531 485.828125 96.253906 485.605469 96.15625 C 481.894531 94.476562 477.03125 96.46875 476.828125 96.554688 Z M 482.105469 122.414062 C 481.855469 122.378906 481.636719 122.539062 481.597656 122.777344 L 480.640625 128.804688 C 480.605469 129.042969 480.765625 129.273438 481.011719 129.308594 C 481.039062 129.308594 481.058594 129.320312 481.082031 129.320312 C 481.296875 129.320312 481.484375 129.160156 481.519531 128.945312 L 482.480469 122.921875 C 482.515625 122.679688 482.355469 122.449219 482.105469 122.414062 Z M 486.121094 124.351562 C 485.882812 124.332031 485.660156 124.503906 485.632812 124.75 L 485.046875 130.652344 C 485.019531 130.890625 485.199219 131.113281 485.445312 131.140625 C 485.464844 131.140625 485.472656 131.140625 485.492188 131.140625 C 485.714844 131.140625 485.910156 130.972656 485.9375 130.738281 L 486.523438 124.839844 C 486.550781 124.589844 486.371094 124.378906 486.121094 124.351562 Z M 487.828125 110.0625 C 487.773438 110.070312 482.140625 111.171875 480.054688 109.761719 C 479.921875 109.671875 479.761719 109.664062 479.617188 109.726562 C 479.476562 109.789062 479.378906 109.929688 479.359375 110.082031 L 478.996094 113.324219 C 478.96875 113.5625 479.148438 113.785156 479.386719 113.8125 C 479.40625 113.8125 479.421875 113.8125 479.441406 113.8125 C 479.664062 113.8125 479.859375 113.644531 479.882812 113.421875 L 480.167969 110.828125 C 482.816406 111.945312 487.765625 110.976562 487.996094 110.933594 C 488.238281 110.890625 488.398438 110.648438 488.34375 110.410156 C 488.308594 110.179688 488.078125 110.019531 487.828125 110.0625 Z M 490.609375 123.90625 C 490.359375 123.90625 490.164062 124.101562 490.164062 124.351562 L 490.164062 130.6875 C 490.164062 130.9375 490.359375 131.132812 490.609375 131.132812 C 490.859375 131.132812 491.054688 130.9375 491.054688 130.6875 L 491.054688 124.351562 C 491.054688 124.109375 490.859375 123.90625 490.609375 123.90625 Z M 494.234375 122.324219 C 494.191406 122.085938 493.949219 121.925781 493.71875 121.96875 C 493.480469 122.015625 493.320312 122.246094 493.363281 122.484375 L 494.589844 128.953125 C 494.625 129.167969 494.8125 129.320312 495.027344 129.320312 C 495.050781 129.320312 495.078125 129.320312 495.105469 129.308594 C 495.347656 129.265625 495.507812 129.035156 495.460938 128.792969 Z M 454.816406 189.210938 C 454.675781 189.28125 440.652344 196.050781 423.421875 197.402344 C 423.34375 197.410156 423.273438 197.4375 423.210938 197.484375 L 420.320312 129.613281 C 438.574219 101.285156 439.667969 72.253906 439.675781 71.960938 C 439.683594 71.710938 439.488281 71.507812 439.25 71.496094 C 439.238281 71.496094 439.238281 71.496094 439.230469 71.496094 C 438.992188 71.496094 438.796875 71.683594 438.785156 71.925781 C 438.777344 72.207031 437.695312 101.078125 419.496094 129.238281 C 419.441406 129.320312 419.425781 129.40625 419.425781 129.496094 L 423.003906 213.761719 C 423.015625 214 423.210938 214.1875 423.449219 214.1875 C 423.457031 214.1875 423.457031 214.1875 423.46875 214.1875 C 423.714844 214.179688 423.902344 213.964844 423.894531 213.726562 L 423.238281 198.210938 C 423.296875 198.246094 423.371094 198.273438 423.449219 198.273438 C 423.457031 198.273438 423.476562 198.273438 423.484375 198.273438 C 440.882812 196.914062 455.058594 190.0625 455.199219 189.992188 C 455.421875 189.886719 455.511719 189.617188 455.402344 189.394531 C 455.296875 189.191406 455.03125 189.09375 454.816406 189.210938 Z M 476.890625 109.050781 C 477.003906 108.835938 476.925781 108.5625 476.710938 108.445312 C 476.5 108.328125 476.222656 108.410156 476.109375 108.625 C 475.984375 108.855469 463.4375 132.347656 464.789062 153.863281 C 464.804688 154.101562 465 154.277344 465.230469 154.277344 C 465.242188 154.277344 465.25 154.277344 465.257812 154.277344 C 465.507812 154.261719 465.695312 154.058594 465.675781 153.808594 C 464.332031 132.5625 476.765625 109.28125 476.890625 109.050781 Z M 458.886719 133.875 C 458.886719 133.875 458.878906 133.875 458.878906 133.875 C 458.636719 133.875 458.441406 134.0625 458.433594 134.3125 L 457.679688 162.144531 C 457.667969 162.390625 457.863281 162.597656 458.113281 162.597656 C 458.113281 162.597656 458.121094 162.597656 458.121094 162.597656 C 458.363281 162.597656 458.558594 162.410156 458.566406 162.160156 L 459.324219 134.332031 C 459.324219 134.089844 459.136719 133.886719 458.886719 133.875 Z M 478 118.957031 C 477.761719 118.914062 477.519531 119.0625 477.476562 119.304688 L 476.054688 126.21875 C 476.011719 126.457031 476.160156 126.695312 476.402344 126.742188 C 476.429688 126.75 476.464844 126.75 476.488281 126.75 C 476.695312 126.75 476.882812 126.609375 476.925781 126.394531 L 478.347656 119.480469 C 478.402344 119.242188 478.242188 119 478 118.957031 Z M 485.117188 104.082031 C 485.171875 104.101562 485.214844 104.109375 485.269531 104.109375 C 485.457031 104.109375 485.625 103.992188 485.6875 103.816406 C 485.765625 103.585938 485.652344 103.328125 485.421875 103.246094 C 483.074219 102.410156 478.90625 103.167969 478.730469 103.195312 C 478.488281 103.238281 478.328125 103.46875 478.375 103.710938 C 478.417969 103.949219 478.648438 104.117188 478.890625 104.066406 C 478.925781 104.066406 483.003906 103.328125 485.117188 104.082031 Z M 485.117188 104.082031 " fill-opacity="1" fill-rule="nonzero"/><path fill="#000000" d="M 417.550781 161.042969 C 416.101562 161.105469 414.972656 162.328125 415.035156 163.777344 C 415.0625 164.480469 415.363281 165.128906 415.886719 165.601562 C 416.375 166.042969 417.007812 166.292969 417.664062 166.292969 C 417.699219 166.292969 417.746094 166.292969 417.78125 166.292969 C 419.230469 166.230469 420.355469 165.003906 420.296875 163.554688 C 420.269531 162.855469 419.964844 162.207031 419.441406 161.734375 C 418.925781 161.253906 418.261719 161.015625 417.550781 161.042969 Z M 417.734375 165.414062 C 417.273438 165.429688 416.828125 165.269531 416.484375 164.960938 C 416.136719 164.648438 415.941406 164.214844 415.921875 163.75 C 415.878906 162.792969 416.625 161.984375 417.585938 161.9375 C 417.613281 161.9375 417.636719 161.9375 417.664062 161.9375 C 418.101562 161.9375 418.519531 162.097656 418.839844 162.402344 C 419.183594 162.710938 419.378906 163.148438 419.398438 163.609375 C 419.441406 164.550781 418.695312 165.367188 417.734375 165.414062 Z M 416.589844 138.632812 C 415.140625 138.691406 414.011719 139.917969 414.074219 141.367188 C 414.101562 142.070312 414.402344 142.71875 414.929688 143.1875 C 415.417969 143.632812 416.039062 143.882812 416.707031 143.882812 C 416.742188 143.882812 416.785156 143.882812 416.820312 143.882812 C 418.269531 143.820312 419.398438 142.59375 419.335938 141.144531 C 419.308594 140.445312 419.007812 139.796875 418.484375 139.324219 C 417.96875 138.84375 417.292969 138.59375 416.589844 138.632812 Z M 416.777344 142.992188 C 416.3125 143.011719 415.871094 142.851562 415.523438 142.539062 C 415.175781 142.230469 414.980469 141.792969 414.964844 141.332031 C 414.917969 140.371094 415.664062 139.5625 416.625 139.519531 C 416.652344 139.519531 416.679688 139.519531 416.707031 139.519531 C 417.140625 139.519531 417.558594 139.679688 417.878906 139.980469 C 418.226562 140.292969 418.421875 140.726562 418.4375 141.191406 C 418.484375 142.140625 417.734375 142.957031 416.777344 142.992188 Z M 417.070312 149.835938 C 416.367188 149.863281 415.71875 150.164062 415.246094 150.6875 C 414.777344 151.203125 414.527344 151.878906 414.554688 152.582031 C 414.582031 153.285156 414.882812 153.933594 415.40625 154.402344 C 415.898438 154.855469 416.527344 155.097656 417.183594 155.097656 C 417.21875 155.097656 417.265625 155.097656 417.300781 155.097656 C 418.003906 155.070312 418.652344 154.769531 419.121094 154.242188 C 419.59375 153.726562 419.84375 153.054688 419.816406 152.351562 C 419.789062 151.648438 419.488281 151 418.960938 150.527344 C 418.445312 150.050781 417.78125 149.808594 417.070312 149.835938 Z M 418.464844 153.640625 C 418.152344 153.984375 417.71875 154.179688 417.257812 154.199219 C 416.792969 154.21875 416.351562 154.058594 416.003906 153.746094 C 415.65625 153.433594 415.460938 153 415.445312 152.539062 C 415.425781 152.074219 415.585938 151.632812 415.898438 151.285156 C 416.207031 150.9375 416.644531 150.742188 417.105469 150.726562 C 417.132812 150.726562 417.160156 150.726562 417.183594 150.726562 C 417.621094 150.726562 418.039062 150.882812 418.359375 151.1875 C 418.703125 151.496094 418.898438 151.933594 418.917969 152.394531 C 418.945312 152.855469 418.785156 153.300781 418.464844 153.640625 Z M 418.027344 172.246094 C 416.582031 172.308594 415.453125 173.535156 415.515625 174.984375 C 415.542969 175.683594 415.84375 176.335938 416.367188 176.804688 C 416.855469 177.257812 417.488281 177.5 418.144531 177.5 C 418.179688 177.5 418.226562 177.5 418.261719 177.5 C 418.960938 177.472656 419.609375 177.167969 420.082031 176.644531 C 420.554688 176.128906 420.800781 175.453125 420.773438 174.753906 C 420.75 174.050781 420.445312 173.402344 419.921875 172.929688 C 419.40625 172.460938 418.738281 172.210938 418.027344 172.246094 Z M 419.425781 176.050781 C 419.113281 176.394531 418.679688 176.589844 418.214844 176.609375 C 417.746094 176.628906 417.308594 176.46875 416.964844 176.15625 C 416.617188 175.84375 416.421875 175.410156 416.402344 174.949219 C 416.359375 173.988281 417.105469 173.179688 418.066406 173.136719 C 418.089844 173.136719 418.117188 173.136719 418.144531 173.136719 C 418.582031 173.136719 418.996094 173.296875 419.316406 173.597656 C 419.664062 173.90625 419.859375 174.34375 419.878906 174.804688 C 419.902344 175.269531 419.746094 175.710938 419.425781 176.050781 Z M 416.003906 186.199219 C 416.03125 186.898438 416.332031 187.546875 416.855469 188.019531 C 417.34375 188.472656 417.976562 188.710938 418.632812 188.710938 C 418.667969 188.710938 418.714844 188.710938 418.75 188.710938 C 419.449219 188.683594 420.101562 188.382812 420.570312 187.859375 C 421.042969 187.34375 421.289062 186.667969 421.265625 185.964844 C 421.238281 185.265625 420.933594 184.617188 420.410156 184.144531 C 419.894531 183.664062 419.230469 183.417969 418.519531 183.453125 C 417.0625 183.515625 415.941406 184.75 416.003906 186.199219 Z M 418.625 184.339844 C 419.058594 184.339844 419.476562 184.5 419.796875 184.800781 C 420.144531 185.113281 420.339844 185.546875 420.355469 186.011719 C 420.375 186.472656 420.214844 186.917969 419.902344 187.265625 C 419.59375 187.609375 419.15625 187.804688 418.695312 187.824219 C 418.234375 187.832031 417.789062 187.679688 417.441406 187.371094 C 417.097656 187.058594 416.902344 186.625 416.882812 186.160156 C 416.839844 185.203125 417.585938 184.382812 418.542969 184.347656 C 418.582031 184.339844 418.597656 184.339844 418.625 184.339844 Z M 418.996094 194.664062 C 417.550781 194.726562 416.421875 195.953125 416.484375 197.402344 C 416.511719 198.105469 416.8125 198.753906 417.335938 199.222656 C 417.824219 199.675781 418.457031 199.917969 419.113281 199.917969 C 419.148438 199.917969 419.191406 199.917969 419.230469 199.917969 C 420.675781 199.855469 421.804688 198.628906 421.742188 197.179688 C 421.671875 195.722656 420.4375 194.585938 418.996094 194.664062 Z M 419.183594 199.027344 C 418.722656 199.039062 418.277344 198.886719 417.929688 198.574219 C 417.585938 198.265625 417.390625 197.828125 417.371094 197.367188 C 417.328125 196.40625 418.074219 195.597656 419.035156 195.554688 C 419.058594 195.554688 419.085938 195.554688 419.105469 195.554688 C 420.027344 195.554688 420.800781 196.28125 420.847656 197.214844 C 420.890625 198.175781 420.136719 198.984375 419.183594 199.027344 Z M 419.183594 199.027344 " fill-opacity="1" fill-rule="nonzero"/><path fill="#ffffff" d="M 423.015625 242.828125 C 422.960938 242.828125 422.90625 242.820312 422.855469 242.800781 L 404.566406 235.773438 C 404.335938 235.683594 404.21875 235.425781 404.308594 235.195312 C 404.398438 234.964844 404.65625 234.847656 404.886719 234.9375 L 423.175781 241.964844 C 423.40625 242.054688 423.519531 242.3125 423.433594 242.542969 C 423.359375 242.722656 423.191406 242.828125 423.015625 242.828125 Z M 423.015625 242.828125 " fill-opacity="1" fill-rule="nonzero"/><path fill="#000000" d="M 181.96875 353.535156 C 181.96875 353.535156 210.703125 366.539062 213.667969 377.519531 C 216.628906 388.5 188.445312 397.398438 175.992188 389.984375 C 163.527344 382.566406 155.519531 383.457031 152.257812 381.085938 C 149 378.714844 144.144531 359.863281 148.9375 352.671875 C 153.742188 345.472656 181.96875 353.535156 181.96875 353.535156 Z M 79.390625 354.617188 C 71.800781 358.746094 67.320312 377.695312 69.105469 381.3125 C 70.894531 384.929688 78.398438 387.867188 85.980469 400.230469 C 93.5625 412.597656 122.652344 417.828125 125.128906 406.734375 C 127.613281 395.640625 105.371094 364.902344 105.371094 364.902344 C 105.371094 364.902344 86.988281 350.484375 79.390625 354.617188 Z M 79.390625 354.617188 " fill-opacity="1" fill-rule="nonzero"/><path fill="#bb581c" d="M 186.152344 148.371094 C 186.152344 148.371094 193.046875 160.859375 192.15625 180.214844 C 191.269531 199.570312 186.152344 219.15625 186.152344 219.15625 C 186.152344 219.15625 193.132812 236.296875 180.742188 253.433594 C 168.347656 270.558594 164.566406 151.289062 164.566406 151.289062 Z M 186.152344 148.371094 " fill-opacity="1" fill-rule="nonzero"/><path fill="#fdefdc" d="M 112.820312 394.304688 C 111.976562 394.304688 111.113281 394.21875 110.242188 394.054688 C 97.605469 391.578125 86.753906 372.230469 86.300781 371.402344 C 86.1875 371.191406 86.257812 370.921875 86.476562 370.808594 C 86.683594 370.695312 86.957031 370.765625 87.070312 370.984375 C 87.183594 371.183594 98.171875 390.8125 110.417969 393.199219 C 114.113281 393.921875 117.589844 392.988281 120.761719 390.4375 C 120.945312 390.289062 121.222656 390.3125 121.371094 390.507812 C 121.519531 390.6875 121.492188 390.96875 121.300781 391.117188 C 118.671875 393.234375 115.820312 394.304688 112.820312 394.304688 Z M 201.003906 373.527344 C 203.863281 372.917969 206.023438 371.394531 207.425781 368.996094 C 207.546875 368.789062 207.480469 368.527344 207.269531 368.402344 C 207.0625 368.28125 206.800781 368.351562 206.675781 368.5625 C 205.40625 370.738281 203.433594 372.125 200.820312 372.675781 C 188.332031 375.339844 164.914062 358.632812 164.679688 358.460938 C 164.476562 358.320312 164.207031 358.363281 164.066406 358.554688 C 163.929688 358.746094 163.972656 359.027344 164.164062 359.164062 C 165.0625 359.8125 184.722656 373.832031 197.867188 373.832031 C 198.972656 373.832031 200.019531 373.738281 201.003906 373.527344 Z M 201.003906 373.527344 " fill-opacity="1" fill-rule="nonzero"/><path fill="#184b6b" d="M 177.804688 225.402344 C 178.421875 230.503906 187.78125 309.324219 183.84375 353.988281 C 183.757812 354.972656 183.101562 355.800781 182.160156 356.125 C 177.238281 357.796875 161.390625 362.148438 148.3125 354.3125 C 147.761719 353.980469 147.394531 353.429688 147.265625 352.8125 C 146.246094 347.792969 141.6875 324.574219 141.617188 310.527344 C 141.617188 309.707031 141.496094 308.90625 141.242188 308.128906 C 139.65625 303.300781 133.617188 284.535156 132.285156 274.132812 C 132.285156 274.132812 128.519531 296.382812 120.066406 316.851562 C 112.421875 335.347656 108.175781 357.851562 107.425781 362.015625 C 107.339844 362.503906 107.132812 362.949219 106.816406 363.332031 C 104.28125 366.425781 91.90625 379.140625 69.875 363.734375 C 69.011719 363.132812 68.46875 362.164062 68.433594 361.109375 C 68.140625 351.890625 69.28125 329.019531 72.890625 311.074219 C 75.476562 298.183594 60.929688 267.035156 71.363281 229.867188 C 81.777344 192.730469 163.214844 146.015625 177.726562 224.898438 C 177.761719 225.054688 177.785156 225.230469 177.804688 225.402344 Z M 177.804688 225.402344 " fill-opacity="1" fill-rule="nonzero"/><path fill="#fdefdc" d="M 201.527344 152.910156 C 186.589844 163.125 175.101562 162.566406 175.101562 162.566406 C 178.222656 183.125 180.652344 214.621094 181.210938 222.074219 C 181.289062 223.101562 180.679688 224.054688 179.722656 224.445312 C 171.144531 227.984375 154.097656 227.964844 148.964844 227.878906 C 148.050781 227.863281 147.230469 227.320312 146.855469 226.492188 L 139.875 211.222656 L 133.9375 227.242188 C 133.660156 227.984375 133.03125 228.550781 132.257812 228.722656 C 118.757812 231.785156 100.691406 231.703125 87.355469 231.042969 C 80.164062 230.683594 74.34375 230.164062 71.363281 229.855469 C 70.125 229.726562 69.203125 228.671875 69.238281 227.433594 L 70.421875 182.863281 L 70.960938 162.566406 L 67.640625 163.855469 C 66.550781 164.285156 65.316406 163.855469 64.730469 162.835938 C 63.675781 160.996094 62.167969 159.140625 60.347656 157.300781 C 52.191406 149.058594 37.75 141.257812 30.085938 137.429688 C 29.207031 136.988281 28.414062 136.605469 27.726562 136.273438 C 26.339844 135.601562 25.957031 133.804688 26.941406 132.621094 L 47.816406 107.675781 C 68.070312 83.492188 90.9375 78.410156 95.871094 77.566406 C 96.507812 77.453125 97.054688 77.085938 97.421875 76.554688 C 107.609375 61.871094 120.761719 65.417969 123.785156 66.488281 C 124.222656 66.644531 124.691406 66.664062 125.144531 66.550781 C 141.703125 62.523438 148.136719 72.800781 149.738281 76.128906 C 150.054688 76.773438 150.648438 77.207031 151.34375 77.382812 C 180.027344 84.546875 199.121094 139.871094 202.457031 150.226562 C 202.789062 151.226562 202.398438 152.316406 201.527344 152.910156 Z M 201.527344 152.910156 " fill-opacity="1" fill-rule="nonzero"/><path fill="#bb581c" d="M 152.546875 36.980469 C 152.546875 47.648438 148.730469 57.667969 141.25 62.199219 C 140.214844 62.828125 139.097656 63.351562 137.921875 63.761719 L 138.085938 66.253906 L 138.417969 71.414062 L 132.746094 96.332031 L 108.492188 69.523438 L 109.9375 58.890625 C 109.703125 58.6875 109.484375 58.488281 109.265625 58.277344 C 104.296875 53.417969 102.042969 45.015625 102.042969 37.921875 C 102.042969 23.453125 114.121094 10.773438 127.796875 10.773438 C 141.46875 10.773438 152.546875 22.503906 152.546875 36.980469 Z M 152.546875 36.980469 " fill-opacity="1" fill-rule="nonzero"/><path fill="#000000" d="M 147.472656 15.445312 C 147.472656 15.445312 156.222656 19.898438 152.425781 34.292969 C 152.425781 34.292969 149.714844 27.277344 146.0625 21.910156 C 144.082031 19 141.15625 16.871094 137.792969 15.886719 C 138.925781 18.738281 139.59375 21.925781 137.539062 23.007812 C 135.308594 24.183594 133.339844 20.726562 132.039062 17.429688 C 131.28125 21.179688 129.992188 25.265625 127.855469 26.128906 C 124.605469 27.4375 126.488281 18.074219 127.421875 14.074219 C 127.246094 14.066406 121.667969 22.398438 118.390625 22.554688 C 116.082031 22.667969 116.167969 20.035156 116.789062 17.472656 C 113.074219 20.308594 104.832031 28.917969 102.921875 41.265625 C 102.921875 41.265625 100.027344 37.355469 97.648438 33.886719 C 95.558594 30.835938 95.339844 26.851562 97.109375 23.59375 C 99.113281 19.886719 102.503906 14.816406 107.296875 11.539062 C 107.296875 11.539062 102.121094 12.542969 101.683594 10.320312 C 101.25 8.097656 110.488281 3.871094 120.046875 8.097656 C 120.046875 8.097656 113.152344 3.144531 113.980469 1.535156 C 114.765625 0.0273438 121.730469 0.855469 127.261719 5.707031 C 126.773438 3.285156 126.445312 0.289062 127.941406 0.855469 C 129.398438 1.410156 130.304688 4.027344 130.792969 6.058594 C 132.414062 5.664062 134.601562 5.308594 136.578125 5.542969 C 140.292969 5.988281 154.535156 11.992188 154.089844 14.109375 C 153.644531 16.226562 147.472656 15.445312 147.472656 15.445312 Z M 137.921875 63.761719 C 136.074219 64.398438 134.050781 64.738281 131.855469 64.738281 C 125.503906 64.738281 116.257812 63.578125 110.757812 59.535156 C 112.140625 65.722656 119.464844 70.410156 127.289062 70.410156 C 131.855469 70.410156 135.167969 68.808594 138.085938 66.253906 Z M 122.347656 37.355469 C 122.347656 39.167969 120.882812 40.628906 119.070312 40.628906 C 117.257812 40.628906 115.792969 39.167969 115.792969 37.355469 C 115.792969 35.539062 117.257812 34.078125 119.070312 34.078125 C 120.882812 34.078125 122.347656 35.539062 122.347656 37.355469 Z M 143.152344 36.054688 C 143.152344 37.867188 141.6875 39.332031 139.875 39.332031 C 138.0625 39.332031 136.597656 37.867188 136.597656 36.054688 C 136.597656 34.242188 138.0625 32.777344 139.875 32.777344 C 141.6875 32.777344 143.152344 34.25 143.152344 36.054688 Z M 112.203125 30.894531 C 111.722656 30.894531 111.234375 30.695312 110.894531 30.304688 C 110.261719 29.578125 110.328125 28.480469 111.054688 27.84375 C 116.28125 23.234375 123.261719 24.628906 123.558594 24.691406 C 124.5 24.890625 125.101562 25.816406 124.910156 26.757812 C 124.710938 27.695312 123.785156 28.296875 122.851562 28.105469 C 122.757812 28.089844 117.242188 27.035156 113.355469 30.46875 C 113.03125 30.757812 112.613281 30.894531 112.203125 30.894531 Z M 144.003906 28.75 C 143.683594 28.75 143.359375 28.664062 143.074219 28.480469 C 139.507812 26.207031 135.867188 27.722656 135.71875 27.792969 C 134.835938 28.167969 133.808594 27.765625 133.425781 26.894531 C 133.042969 26.015625 133.433594 24.996094 134.304688 24.601562 C 134.523438 24.507812 139.761719 22.234375 144.945312 25.542969 C 145.757812 26.058594 145.992188 27.140625 145.476562 27.949219 C 145.136719 28.464844 144.582031 28.75 144.003906 28.75 Z M 144.003906 28.75 " fill-opacity="1" fill-rule="nonzero"/><path fill="#bb581c" d="M 107.3125 42.242188 C 110.148438 46.6875 109.9375 51.898438 106.824219 53.878906 C 103.722656 55.855469 98.902344 53.859375 96.070312 49.40625 C 93.238281 44.953125 93.449219 39.75 96.558594 37.773438 C 99.660156 35.800781 104.480469 37.796875 107.3125 42.242188 Z M 107.3125 42.242188 " fill-opacity="1" fill-rule="nonzero"/><path fill="#000000" d="M 96.855469 207.503906 C 96.648438 207.503906 96.4375 207.484375 96.21875 207.449219 C 94.085938 207.101562 92.628906 205.089844 92.976562 202.953125 C 93.109375 202.160156 105.632812 123.15625 85.820312 97.191406 C 82.414062 92.730469 78.351562 90.300781 73.386719 89.765625 C 71.234375 89.53125 69.671875 87.605469 69.90625 85.453125 C 70.144531 83.300781 72.070312 81.742188 74.222656 81.976562 C 81.34375 82.742188 87.347656 86.265625 92.0625 92.441406 C 113.902344 121.082031 101.265625 200.835938 100.714844 204.214844 C 100.410156 206.132812 98.746094 207.503906 96.855469 207.503906 Z M 136.605469 45.117188 C 136.851562 45.117188 137.042969 44.917969 137.042969 44.683594 C 137.035156 43.359375 136.589844 42.285156 135.71875 41.519531 C 133.792969 39.8125 130.488281 40.175781 130.347656 40.195312 C 130.113281 40.222656 129.9375 40.4375 129.964844 40.675781 C 129.992188 40.910156 130.199219 41.082031 130.445312 41.058594 C 130.46875 41.058594 133.511719 40.726562 135.140625 42.171875 C 135.820312 42.773438 136.160156 43.621094 136.171875 44.691406 C 136.171875 44.925781 136.363281 45.117188 136.605469 45.117188 Z M 141.957031 48.421875 C 142.113281 48.238281 142.097656 47.96875 141.921875 47.8125 C 141.738281 47.648438 141.46875 47.664062 141.304688 47.847656 C 141.25 47.90625 136.039062 53.511719 123.027344 50.828125 C 122.800781 50.785156 122.558594 50.933594 122.511719 51.167969 C 122.460938 51.402344 122.617188 51.628906 122.851562 51.683594 C 125.476562 52.222656 127.796875 52.441406 129.824219 52.441406 C 138.28125 52.441406 141.78125 48.621094 141.957031 48.421875 Z M 97.265625 43.953125 C 97.273438 43.933594 97.980469 41.929688 99.296875 41.730469 C 100.230469 41.589844 101.371094 42.398438 102.582031 44.074219 C 102.722656 44.265625 102.992188 44.308594 103.191406 44.167969 C 103.382812 44.03125 103.425781 43.75 103.289062 43.558594 C 101.839844 41.570312 100.457031 40.675781 99.164062 40.867188 C 97.316406 41.144531 96.480469 43.566406 96.445312 43.671875 C 96.367188 43.898438 96.488281 44.152344 96.714844 44.222656 C 96.761719 44.238281 96.8125 44.246094 96.855469 44.246094 C 97.03125 44.246094 97.203125 44.132812 97.265625 43.953125 Z M 97.265625 43.953125 " fill-opacity="1" fill-rule="nonzero"/><path fill="#eb4c30" d="M 88.984375 263.125 L 11.273438 246.660156 C 4.71875 245.273438 0.8125 238.894531 2.539062 232.410156 L 15.429688 184.1875 C 17.164062 177.714844 23.875 173.582031 30.429688 174.96875 L 108.140625 191.429688 C 114.695312 192.816406 118.601562 199.195312 116.875 205.679688 L 103.984375 253.902344 C 102.25 260.386719 95.53125 264.507812 88.984375 263.125 Z M 88.984375 263.125 " fill-opacity="1" fill-rule="nonzero"/><path fill="#000000" d="M 91.339844 213.113281 L 26.6875 199.414062 C 22.324219 198.492188 17.835938 201.246094 16.683594 205.566406 L 9.320312 233.125 C 8.761719 235.226562 9.058594 237.378906 10.164062 239.191406 C 11.273438 240.996094 13.050781 242.234375 15.175781 242.6875 L 79.824219 256.386719 C 80.390625 256.507812 80.96875 256.570312 81.535156 256.570312 C 85.308594 256.570312 88.828125 253.988281 89.832031 250.242188 L 97.195312 222.683594 C 97.753906 220.585938 97.457031 218.429688 96.351562 216.617188 C 95.242188 214.804688 93.464844 213.566406 91.339844 213.113281 Z M 96.359375 222.449219 L 88.996094 250.007812 C 87.957031 253.886719 83.929688 256.359375 80.007812 255.53125 L 15.359375 241.832031 C 13.476562 241.429688 11.890625 240.332031 10.914062 238.738281 C 9.929688 237.132812 9.667969 235.226562 10.164062 233.359375 L 17.527344 205.804688 C 18.425781 202.429688 21.589844 200.121094 24.980469 200.121094 C 25.484375 200.121094 26 200.171875 26.515625 200.277344 L 91.164062 213.976562 C 93.046875 214.378906 94.632812 215.476562 95.609375 217.070312 C 96.585938 218.667969 96.855469 220.585938 96.359375 222.449219 Z M 108.628906 207.015625 L 99.277344 243.820312 C 99.226562 244.019531 99.050781 244.148438 98.859375 244.148438 C 98.824219 244.148438 98.789062 244.148438 98.753906 244.132812 C 98.519531 244.070312 98.382812 243.835938 98.441406 243.601562 L 107.792969 206.796875 C 108.308594 204.765625 107.984375 202.675781 106.871094 200.894531 C 105.761719 199.117188 104.019531 197.914062 101.960938 197.488281 L 22.375 181.085938 C 22.140625 181.035156 21.992188 180.808594 22.035156 180.570312 C 22.078125 180.335938 22.3125 180.1875 22.550781 180.230469 L 102.136719 196.632812 C 104.421875 197.105469 106.363281 198.457031 107.601562 200.433594 C 108.839844 202.414062 109.207031 204.75 108.628906 207.015625 Z M 108.628906 207.015625 " fill-opacity="1" fill-rule="nonzero"/><path fill="#bb581c" d="M 100.148438 197.574219 C 97.359375 205.8125 86.128906 197.132812 84.121094 202.472656 C 82.117188 207.816406 92.28125 226.546875 91.285156 229.769531 C 90.328125 232.863281 86.300781 229.472656 86.136719 229.402344 C 86.207031 229.492188 86.773438 230.152344 87.355469 231.042969 C 88.480469 232.777344 88.496094 235.070312 86.160156 235.261719 C 83.363281 235.488281 82.011719 234.40625 82.011719 234.40625 C 78.378906 237.632812 72.488281 230.144531 72.488281 230.144531 C 72.488281 230.144531 72.886719 235.851562 65.984375 228.734375 C 59.09375 221.613281 61.097656 201.75 61.097656 201.75 C 61.097656 201.75 23.265625 181.113281 19.707031 165.757812 C 17.992188 158.367188 23.699219 147.113281 30.085938 137.429688 C 37.75 141.257812 52.191406 149.058594 60.347656 157.300781 C 58.152344 158.933594 56.644531 159.863281 56.644531 159.863281 C 60.058594 163.761719 66.839844 176.128906 70.421875 182.863281 C 71.851562 185.546875 72.773438 187.34375 72.773438 187.34375 C 72.773438 187.34375 79.679688 186.453125 84.019531 190.238281 C 88.347656 194.019531 102.929688 189.347656 100.148438 197.574219 Z M 100.148438 197.574219 " fill-opacity="1" fill-rule="nonzero"/><path fill="#fdefdc" d="M 115.90625 48.34375 L 110.285156 46.050781 C 109.648438 45.789062 109.34375 45.066406 109.597656 44.429688 L 110.476562 42.269531 C 110.738281 41.632812 111.460938 41.328125 112.097656 41.582031 L 117.71875 43.871094 C 118.355469 44.132812 118.660156 44.859375 118.410156 45.492188 L 117.527344 47.65625 C 117.265625 48.300781 116.542969 48.605469 115.90625 48.34375 Z M 150.386719 48.449219 L 148.285156 47.429688 C 147.664062 47.132812 146.917969 47.386719 146.621094 48.011719 L 143.980469 53.484375 C 143.683594 54.105469 143.9375 54.855469 144.5625 55.148438 L 146.664062 56.171875 C 147.28125 56.464844 148.03125 56.214844 148.328125 55.585938 L 150.96875 50.113281 C 151.265625 49.496094 151.003906 48.746094 150.386719 48.449219 Z M 150.386719 48.449219 " fill-opacity="1" fill-rule="nonzero"/><path fill="#000000" d="M 88.464844 230.816406 C 88.382812 230.964844 88.234375 231.050781 88.070312 231.050781 C 88 231.050781 87.941406 231.035156 87.871094 231.007812 C 87.554688 230.851562 80.105469 226.929688 76.757812 212.289062 C 76.707031 212.050781 76.855469 211.816406 77.089844 211.765625 C 77.324219 211.710938 77.558594 211.859375 77.613281 212.09375 C 80.855469 226.300781 88.191406 230.195312 88.269531 230.230469 C 88.488281 230.335938 88.578125 230.597656 88.464844 230.816406 Z M 70.925781 217.671875 C 70.839844 217.445312 70.597656 217.332031 70.371094 217.410156 C 70.144531 217.488281 70.03125 217.742188 70.109375 217.96875 C 73.960938 228.417969 81.664062 234.675781 81.742188 234.738281 C 81.820312 234.796875 81.917969 234.832031 82.011719 234.832031 C 82.144531 234.832031 82.265625 234.78125 82.351562 234.667969 C 82.5 234.484375 82.476562 234.207031 82.285156 234.058594 C 82.214844 234.003906 74.691406 227.886719 70.925781 217.671875 Z M 66.1875 219.242188 C 66.109375 219.015625 65.863281 218.894531 65.636719 218.972656 C 65.410156 219.050781 65.289062 219.292969 65.367188 219.519531 C 67.378906 225.402344 71.992188 230.230469 72.191406 230.441406 C 72.277344 230.527344 72.390625 230.570312 72.503906 230.570312 C 72.617188 230.570312 72.722656 230.527344 72.808594 230.449219 C 72.984375 230.285156 72.992188 230.003906 72.820312 229.832031 C 72.757812 229.789062 68.128906 224.941406 66.1875 219.242188 Z M 101.363281 130.980469 C 101.214844 131.15625 88.316406 146.417969 76.269531 157.414062 C 49.90625 131.148438 31.59375 126.992188 31.421875 126.957031 C 31.1875 126.902344 30.949219 127.050781 30.90625 127.285156 C 30.855469 127.523438 31.003906 127.757812 31.238281 127.800781 C 31.421875 127.835938 49.488281 131.96875 75.625 158 C 73.941406 159.515625 72.289062 160.945312 70.691406 162.226562 C 70.5 162.375 70.472656 162.652344 70.621094 162.835938 C 70.710938 162.941406 70.832031 163.003906 70.960938 163.003906 C 71.058594 163.003906 71.15625 162.96875 71.234375 162.90625 C 72.957031 161.527344 74.746094 159.976562 76.558594 158.339844 C 76.566406 158.339844 76.566406 158.332031 76.574219 158.332031 C 76.574219 158.332031 76.574219 158.320312 76.582031 158.320312 C 88.757812 147.261719 101.882812 131.730469 102.03125 131.558594 C 102.191406 131.375 102.164062 131.09375 101.980469 130.949219 C 101.796875 130.773438 101.519531 130.800781 101.363281 130.980469 Z M 127.734375 93.097656 L 117.886719 102.691406 C 117.730469 102.847656 117.519531 102.9375 117.300781 102.917969 C 117.082031 102.910156 116.882812 102.824219 116.734375 102.65625 C 113.03125 98.550781 100.707031 84.539062 97.832031 76.40625 C 97.753906 76.179688 97.5 76.058594 97.273438 76.144531 C 97.046875 76.222656 96.925781 76.476562 97.011719 76.703125 C 99.941406 84.984375 112.359375 99.117188 116.089844 103.25 C 116.394531 103.589844 116.8125 103.78125 117.277344 103.800781 C 117.292969 103.800781 117.308594 103.800781 117.328125 103.800781 C 117.765625 103.800781 118.183594 103.632812 118.496094 103.320312 L 128.34375 93.722656 C 128.519531 93.558594 128.519531 93.28125 128.351562 93.105469 C 128.1875 92.929688 127.910156 92.929688 127.734375 93.097656 Z M 139.4375 211.1875 C 139.421875 211.433594 139.605469 211.632812 139.847656 211.652344 C 139.855469 211.652344 139.867188 211.652344 139.875 211.652344 C 140.101562 211.652344 140.292969 211.476562 140.308594 211.242188 C 143.402344 165.292969 134.027344 99.808594 133.929688 99.152344 C 133.894531 98.917969 133.660156 98.746094 133.433594 98.789062 C 133.199219 98.824219 133.03125 99.039062 133.066406 99.285156 C 133.164062 99.9375 142.523438 165.335938 139.4375 211.1875 Z M 147.648438 97.890625 C 150.089844 89.210938 151.039062 77.226562 151.046875 77.105469 C 151.066406 76.859375 150.890625 76.652344 150.648438 76.632812 C 150.429688 76.617188 150.191406 76.789062 150.175781 77.035156 C 150.167969 77.15625 149.226562 89.042969 146.804688 97.644531 C 146.726562 97.917969 146.53125 98.117188 146.261719 98.195312 C 145.992188 98.273438 145.703125 98.210938 145.496094 98.019531 C 143.195312 95.972656 138.941406 92.433594 136.40625 91.78125 C 136.171875 91.71875 135.933594 91.859375 135.875 92.09375 C 135.8125 92.328125 135.953125 92.566406 136.1875 92.625 C 137.914062 93.070312 141.09375 95.277344 144.921875 98.675781 C 145.234375 98.953125 145.625 99.101562 146.035156 99.101562 C 146.191406 99.101562 146.359375 99.074219 146.507812 99.03125 C 147.074219 98.875 147.492188 98.449219 147.648438 97.890625 Z M 167.570312 134.441406 C 167.867188 136.839844 166.507812 139.085938 164.269531 139.90625 C 162.492188 140.550781 160.566406 140.777344 158.734375 140.777344 C 157.0625 140.777344 155.464844 140.585938 154.148438 140.359375 C 151.9375 139.976562 150.246094 138.199219 149.949219 135.949219 L 147.039062 113.734375 C 147.019531 113.621094 147.054688 113.5 147.125 113.414062 C 147.195312 113.316406 147.308594 113.265625 147.421875 113.246094 L 164.328125 111.46875 C 164.574219 111.441406 164.78125 111.617188 164.808594 111.851562 Z M 166.707031 134.546875 L 164.007812 112.382812 L 147.960938 114.074219 L 150.820312 135.84375 C 151.066406 137.71875 152.46875 139.191406 154.308594 139.503906 C 156.9375 139.96875 160.757812 140.265625 163.972656 139.085938 C 165.828125 138.40625 166.953125 136.542969 166.707031 134.546875 Z M 200.601562 143.507812 C 200.464844 143.304688 200.191406 143.261719 199.992188 143.402344 C 199.898438 143.472656 190.03125 150.425781 174.308594 153.378906 L 169.226562 115.625 C 169.191406 115.390625 168.964844 115.214844 168.738281 115.25 C 168.503906 115.285156 168.328125 115.503906 168.363281 115.738281 L 173.507812 153.972656 L 174.664062 162.617188 C 174.691406 162.835938 174.882812 162.992188 175.09375 162.992188 C 175.109375 162.992188 175.128906 162.992188 175.152344 162.992188 C 175.390625 162.957031 175.5625 162.742188 175.527344 162.503906 L 174.421875 154.253906 C 190.363281 151.261719 200.402344 144.1875 200.496094 144.117188 C 200.699219 143.976562 200.742188 143.707031 200.601562 143.507812 Z M 49.277344 153.511719 C 49.0625 153.40625 48.800781 153.484375 48.695312 153.703125 C 48.589844 153.921875 48.667969 154.183594 48.886719 154.285156 C 48.9375 154.3125 53.878906 156.839844 56.292969 160.117188 C 56.382812 160.230469 56.511719 160.292969 56.644531 160.292969 C 56.730469 160.292969 56.828125 160.265625 56.90625 160.203125 C 57.097656 160.066406 57.140625 159.785156 57 159.59375 C 54.457031 156.152344 49.488281 153.617188 49.277344 153.511719 Z M 144.753906 251.488281 C 144.546875 251.375 144.277344 251.445312 144.164062 251.664062 L 131.910156 273.914062 C 131.796875 274.121094 131.863281 274.390625 132.082031 274.503906 C 132.152344 274.539062 132.222656 274.558594 132.292969 274.558594 C 132.449219 274.558594 132.597656 274.480469 132.675781 274.332031 L 144.929688 252.082031 C 145.042969 251.871094 144.964844 251.601562 144.753906 251.488281 Z M 144.753906 251.488281 " fill-opacity="1" fill-rule="nonzero"/><path fill="#eb8b51" d="M 315.832031 393.132812 C 304.4375 403.789062 286.257812 396.199219 286.257812 383.054688 C 286.257812 373.246094 289.433594 357.101562 290.675781 351.164062 C 290.6875 351.15625 290.6875 351.148438 290.6875 351.148438 C 290.976562 349.714844 291.167969 348.882812 291.167969 348.882812 C 291.167969 348.882812 289.03125 331.511719 286.628906 314.796875 C 285.152344 304.503906 283.566406 294.464844 282.3125 288.871094 C 279.027344 274.191406 273.554688 238.707031 273.554688 238.707031 C 264.792969 216.582031 282.535156 204.976562 300.277344 223.378906 C 318.019531 241.769531 298.964844 253.824219 307.722656 274.851562 C 311.5 283.914062 312.304688 298.496094 311.996094 312.171875 C 311.714844 324.816406 310.488281 336.683594 309.773438 342.664062 C 309.457031 345.269531 309.816406 347.90625 310.8125 350.332031 C 314.863281 360.214844 324.375 385.128906 315.832031 393.132812 Z M 217.386719 393.890625 C 228.777344 404.542969 246.957031 396.953125 246.957031 383.808594 C 246.957031 374.003906 243.785156 357.855469 242.539062 351.917969 C 242.53125 351.910156 242.53125 351.902344 242.53125 351.902344 C 242.238281 350.46875 242.050781 349.636719 242.050781 349.636719 C 242.050781 349.636719 244.1875 332.265625 246.589844 315.550781 C 248.0625 305.257812 249.652344 295.21875 250.902344 289.625 C 254.191406 274.945312 259.664062 239.464844 259.664062 239.464844 C 268.421875 217.335938 250.679688 205.730469 232.9375 224.132812 C 215.195312 242.527344 234.25 254.578125 225.492188 275.609375 C 221.71875 284.667969 220.910156 299.253906 221.21875 312.925781 C 221.503906 325.574219 222.730469 337.4375 223.441406 343.417969 C 223.757812 346.027344 223.398438 348.660156 222.402344 351.085938 C 218.355469 360.972656 208.839844 385.886719 217.386719 393.890625 Z M 217.386719 393.890625 " fill-opacity="1" fill-rule="nonzero"/><path fill="#ffffff" d="M 315.832031 393.132812 C 304.4375 403.789062 286.257812 396.199219 286.257812 383.054688 C 286.257812 373.246094 289.433594 357.101562 290.675781 351.164062 C 290.6875 351.15625 290.6875 351.148438 290.6875 351.148438 C 290.976562 349.714844 291.167969 348.882812 291.167969 348.882812 C 291.167969 348.882812 289.03125 331.511719 286.628906 314.796875 C 298.175781 315.679688 307.328125 313.597656 311.996094 312.171875 C 311.714844 324.816406 310.488281 336.683594 309.773438 342.664062 C 309.457031 345.269531 309.816406 347.90625 310.8125 350.332031 C 314.863281 360.214844 324.375 385.128906 315.832031 393.132812 Z M 217.386719 393.890625 C 228.777344 404.542969 246.957031 396.953125 246.957031 383.808594 C 246.957031 374.003906 243.785156 357.855469 242.539062 351.917969 C 242.53125 351.910156 242.53125 351.902344 242.53125 351.902344 C 242.238281 350.46875 242.050781 349.636719 242.050781 349.636719 C 242.050781 349.636719 244.1875 332.265625 246.589844 315.550781 C 235.039062 316.4375 225.886719 314.351562 221.21875 312.925781 C 221.503906 325.574219 222.730469 337.4375 223.441406 343.417969 C 223.757812 346.027344 223.398438 348.660156 222.402344 351.085938 C 218.355469 360.972656 208.839844 385.886719 217.386719 393.890625 Z M 217.386719 393.890625 " fill-opacity="1" fill-rule="nonzero"/><path fill="#000000" d="M 316.476562 394.085938 C 304.515625 405.265625 285.445312 397.304688 285.445312 383.507812 C 285.445312 374.871094 288.722656 357.144531 289.769531 351.671875 C 289.835938 351.320312 290.335938 351.328125 290.402344 351.679688 L 292.253906 361.375 L 292.367188 361.367188 C 293.378906 357.769531 297.230469 355.09375 301.839844 355.09375 C 306.050781 355.09375 309.636719 357.332031 310.984375 360.472656 L 311.207031 360.464844 L 311.207031 351.25 C 311.207031 350.804688 311.816406 350.683594 311.980469 351.097656 C 316.527344 362.457031 324.933594 386.167969 316.476562 394.085938 Z M 216.742188 394.851562 C 228.699219 406.027344 247.773438 398.066406 247.773438 384.273438 C 247.773438 375.632812 244.496094 357.910156 243.449219 352.433594 C 243.378906 352.082031 242.882812 352.089844 242.8125 352.441406 L 240.960938 362.128906 L 240.847656 362.121094 C 239.835938 358.527344 235.984375 355.847656 231.378906 355.847656 C 227.164062 355.847656 223.578125 358.089844 222.230469 361.226562 L 222.007812 361.21875 L 222.007812 352.003906 C 222.007812 351.558594 221.398438 351.441406 221.238281 351.851562 C 216.691406 363.21875 208.28125 386.933594 216.742188 394.851562 Z M 216.742188 394.851562 " fill-opacity="1" fill-rule="nonzero"/><path fill="#ffffff" d="M 311.621094 360.328125 C 311.550781 360.105469 311.308594 359.976562 311.078125 360.042969 C 310.855469 360.113281 310.726562 360.351562 310.796875 360.585938 C 310.8125 360.644531 311.601562 363.175781 312.210938 366.660156 C 309.78125 365.957031 301.289062 363.980469 291.800781 367.414062 C 292.171875 364.007812 292.761719 361.527344 292.777344 361.46875 C 292.839844 361.238281 292.691406 361.003906 292.460938 360.953125 C 292.230469 360.894531 292 361.039062 291.945312 361.269531 C 291.785156 361.921875 288.0625 377.417969 293.953125 384.785156 C 295.945312 387.273438 298.800781 388.535156 302.464844 388.535156 C 302.566406 388.535156 302.671875 388.535156 302.773438 388.535156 C 306.515625 388.46875 309.355469 387.113281 311.214844 384.519531 C 316.730469 376.824219 311.824219 360.996094 311.621094 360.328125 Z M 312.375 367.601562 C 312.683594 369.53125 312.914062 371.703125 312.941406 373.875 C 311.578125 373.429688 302.15625 370.632812 291.585938 374.621094 C 291.449219 372.457031 291.535156 370.296875 291.707031 368.367188 C 301.796875 364.558594 310.804688 367.105469 312.375 367.601562 Z M 310.519531 384.007812 C 308.824219 386.367188 306.214844 387.59375 302.757812 387.660156 C 299.238281 387.730469 296.492188 386.578125 294.625 384.238281 C 292.796875 381.957031 291.964844 378.765625 291.664062 375.503906 C 302.816406 371.1875 312.726562 374.699219 312.820312 374.730469 C 312.863281 374.75 312.898438 374.75 312.941406 374.75 C 312.890625 378.191406 312.269531 381.570312 310.519531 384.007812 Z M 240.753906 361.707031 C 240.523438 361.769531 240.386719 362 240.4375 362.222656 C 240.453125 362.285156 241.046875 364.761719 241.414062 368.167969 C 231.925781 364.738281 223.433594 366.710938 221.003906 367.414062 C 221.625 363.929688 222.402344 361.398438 222.421875 361.339844 C 222.488281 361.117188 222.371094 360.875 222.136719 360.800781 C 221.914062 360.730469 221.675781 360.851562 221.597656 361.082031 C 221.382812 361.75 216.476562 377.589844 221.992188 385.265625 C 223.855469 387.859375 226.695312 389.207031 230.433594 389.28125 C 230.535156 389.28125 230.640625 389.28125 230.742188 389.28125 C 234.40625 389.28125 237.261719 388.019531 239.253906 385.535156 C 245.148438 378.164062 241.425781 362.667969 241.261719 362.019531 C 241.210938 361.792969 240.988281 361.648438 240.753906 361.707031 Z M 241.507812 369.121094 C 241.679688 371.050781 241.757812 373.214844 241.628906 375.375 C 231.070312 371.394531 221.648438 374.183594 220.285156 374.628906 C 220.308594 372.457031 220.542969 370.289062 220.851562 368.359375 C 222.414062 367.859375 231.421875 365.320312 241.507812 369.121094 Z M 238.59375 385 C 236.722656 387.34375 233.960938 388.476562 230.460938 388.425781 C 227.003906 388.355469 224.394531 387.128906 222.695312 384.769531 C 220.945312 382.332031 220.328125 378.953125 220.277344 375.519531 C 220.320312 375.519531 220.351562 375.519531 220.394531 375.503906 C 220.492188 375.46875 230.382812 371.953125 241.550781 376.277344 C 241.253906 379.535156 240.421875 382.71875 238.59375 385 Z M 238.59375 385 " fill-opacity="1" fill-rule="nonzero"/><path fill="#eb8b51" d="M 226.820312 41.847656 C 222.839844 43.761719 219.617188 48.882812 214.46875 50.816406 L 212.804688 59.308594 L 201.632812 56.296875 L 203.925781 49.261719 C 201.839844 47.167969 201.152344 44.054688 200.9375 41.890625 C 200.765625 40.195312 200.15625 38.582031 199.121094 37.226562 C 196.625 33.972656 192.539062 28.199219 194.425781 27.582031 C 196.828125 26.792969 202.75 33.84375 203.785156 35.105469 C 203.820312 35.148438 203.882812 35.105469 203.863281 35.054688 C 199.816406 22.109375 200.113281 17.175781 202.59375 17.957031 C 204.824219 18.660156 207.542969 29.8125 208.085938 32.371094 C 208.09375 32.429688 208.523438 32.378906 208.523438 32.316406 C 208.515625 29.347656 208.375 14.714844 211.164062 14.59375 C 214.152344 14.464844 213.652344 18.023438 213.703125 32.273438 C 213.703125 32.335938 213.789062 32.335938 213.796875 32.273438 C 216.9375 18.761719 219.777344 15.632812 221.675781 17.628906 C 223.167969 19.207031 217.867188 36.1875 217.867188 36.1875 C 217.855469 36.203125 217.855469 36.214844 217.855469 36.230469 C 217.042969 41.480469 219.925781 38.640625 224.417969 36.617188 C 228.914062 34.617188 232.253906 39.242188 226.820312 41.847656 Z M 308.195312 166.753906 L 298.226562 177.160156 C 298.226562 177.160156 290.453125 218.015625 303.375 215.082031 C 316.292969 212.148438 316.191406 207.058594 314.769531 206.511719 C 313.34375 205.960938 310.933594 207.496094 310.933594 207.496094 C 310.933594 207.496094 311.371094 205.085938 313.523438 196.980469 C 315.675781 188.871094 311.808594 184.386719 311.808594 184.386719 L 313.523438 181.683594 Z M 308.195312 166.753906 " fill-opacity="1" fill-rule="nonzero"/><path fill="#eb4c30" d="M 300.722656 176.621094 L 317.710938 251.996094 C 318.019531 253.351562 317.230469 254.71875 315.898438 255.113281 C 312.828125 256.03125 307.125 257.445312 301.222656 257.417969 C 300.765625 257.417969 300.328125 257.523438 299.925781 257.746094 C 298.183594 258.699219 292.523438 261.273438 284.292969 259.976562 C 283.753906 259.890625 283.203125 259.949219 282.714844 260.191406 C 280.726562 261.160156 274.566406 263.570312 265.601562 261.496094 C 265.207031 261.402344 264.792969 261.402344 264.398438 261.496094 C 255.433594 263.570312 249.273438 261.160156 247.285156 260.191406 C 246.792969 259.949219 246.238281 259.890625 245.703125 259.976562 C 237.476562 261.273438 231.816406 258.699219 230.074219 257.746094 C 229.679688 257.53125 229.234375 257.417969 228.777344 257.417969 C 222.867188 257.445312 217.160156 256.019531 214.089844 255.101562 C 212.769531 254.707031 211.980469 253.351562 212.273438 252.007812 L 228.625 177.144531 L 229.789062 170.03125 C 230.003906 168.753906 231.101562 167.816406 232.398438 167.816406 L 295.917969 167.816406 C 297.058594 167.816406 298.074219 168.554688 298.433594 169.636719 L 300.644531 176.363281 C 300.679688 176.457031 300.707031 176.542969 300.722656 176.621094 Z M 300.722656 176.621094 " fill-opacity="1" fill-rule="nonzero"/><path fill="#bfd9ff" d="M 353.210938 146.15625 C 351.847656 158.785156 331.644531 173.746094 322.902344 174.328125 L 316.714844 181.253906 C 315.488281 182.625 313.488281 183.003906 311.84375 182.164062 C 308.746094 180.574219 304.164062 177.597656 303.28125 173.558594 L 307.714844 165.355469 C 307.714844 165.355469 303.039062 157.890625 316.183594 141.976562 C 316.183594 141.976562 310.863281 135.871094 308.917969 133.734375 C 308.917969 133.734375 308.78125 174.871094 304.5 186.144531 C 304.5 186.144531 305.648438 190.476562 305.914062 195.375 C 305.972656 196.550781 305.269531 197.632812 304.164062 198.015625 C 299.503906 199.664062 285.949219 203.652344 265.015625 203.242188 C 237.082031 202.691406 226.746094 199.40625 224.078125 198.324219 C 223.613281 198.136719 223.339844 197.675781 223.398438 197.175781 C 223.554688 195.761719 223.914062 192.792969 224.488281 190.75 C 225.0625 188.707031 225.414062 187.722656 226.101562 186.273438 C 226.101562 186.273438 219.863281 181.734375 222.113281 115.261719 C 214.84375 116.945312 210.703125 115.597656 200.828125 115.261719 C 183.632812 114.679688 174.195312 110.929688 173.226562 97.226562 C 172.257812 83.527344 197 61.746094 197 61.746094 L 199.617188 54.316406 C 199.933594 53.40625 200.714844 52.726562 201.667969 52.582031 C 207.3125 51.679688 211.929688 53.996094 214.03125 55.335938 C 214.777344 55.816406 215.136719 56.707031 214.921875 57.566406 L 212.640625 66.566406 C 215.558594 72.160156 213.515625 79.144531 213.515625 79.144531 C 224.214844 74.253906 237.691406 72.949219 245.414062 72.625 C 250.484375 69.894531 257.277344 68.582031 266.578125 69.570312 C 266.578125 69.570312 287.941406 73.121094 298.234375 79.332031 C 308.53125 85.550781 320.773438 86.523438 325.242188 99.148438 C 329.703125 111.761719 354.574219 133.519531 353.210938 146.15625 Z M 353.210938 146.15625 " fill-opacity="1" fill-rule="nonzero"/><path fill="#000000" d="M 296.742188 53.386719 C 296.140625 74.527344 304.703125 76.828125 303.734375 80.277344 C 302.765625 83.726562 295.996094 81.511719 295.996094 81.511719 C 295.996094 81.511719 299.324219 95.058594 288.308594 88.167969 C 272.601562 78.34375 274.015625 35.191406 274.015625 35.191406 C 277.34375 21.214844 297.34375 32.25 296.742188 53.386719 Z M 236.972656 53.386719 C 237.570312 74.527344 229.011719 76.828125 229.980469 80.277344 C 230.949219 83.726562 237.71875 81.511719 237.71875 81.511719 C 237.71875 81.511719 234.390625 95.058594 245.40625 88.167969 C 261.113281 78.34375 259.699219 35.191406 259.699219 35.191406 C 256.367188 21.214844 236.363281 32.25 236.972656 53.386719 Z M 236.972656 53.386719 " fill-opacity="1" fill-rule="nonzero"/><path fill="#ffffff" d="M 284.378906 84.023438 C 281.988281 91.4375 277.429688 99.425781 273.5625 105.457031 C 269.890625 111.179688 266.835938 115.132812 266.835938 115.132812 L 266.835938 115.246094 C 266.835938 115.246094 263.789062 111.296875 260.117188 105.585938 C 256.25 99.554688 251.691406 91.558594 249.292969 84.136719 C 244.625 69.679688 259.601562 65.226562 259.601562 65.226562 L 266.757812 65.226562 L 266.835938 74.535156 L 266.914062 65.117188 L 274.066406 65.117188 C 274.066406 65.117188 289.046875 69.570312 284.378906 84.023438 Z M 284.378906 84.023438 " fill-opacity="1" fill-rule="nonzero"/><path fill="#000000" d="M 292.367188 39.378906 L 255.046875 30.628906 L 241.550781 41.453125 C 241.550781 41.453125 236.128906 41.179688 239.253906 28.035156 C 239.332031 27.703125 239.433594 27.394531 239.554688 27.101562 C 246.097656 6.347656 259.988281 9.515625 259.988281 9.515625 C 260.675781 6.992188 273.964844 0.0078125 286.566406 14.902344 C 299.171875 29.796875 292.367188 39.378906 292.367188 39.378906 Z M 292.367188 39.378906 " fill-opacity="1" fill-rule="nonzero"/><path fill="#eb8b51" d="M 289.542969 39.945312 C 289.542969 45.582031 288.859375 50.71875 286.15625 54.984375 C 285.617188 55.832031 284.996094 56.65625 284.285156 57.4375 C 282.355469 59.558594 279.722656 61.402344 276.832031 62.765625 C 276.832031 62.765625 276.832031 62.765625 276.832031 62.773438 C 276.933594 64.121094 277.128906 65.375 277.371094 66.488281 C 277.707031 68.066406 278.117188 69.390625 278.484375 70.367188 C 278.949219 71.621094 278.632812 73.027344 277.652344 73.945312 C 274.601562 76.808594 268.3125 82.53125 266.757812 82.53125 C 265.230469 82.53125 259.664062 77.074219 256.917969 74.289062 C 256.058594 73.414062 255.742188 72.132812 256.128906 70.976562 C 256.515625 69.816406 256.78125 68.445312 256.960938 67.03125 C 257.132812 65.71875 257.234375 64.371094 257.285156 63.144531 L 257.285156 63.132812 C 254.550781 61.933594 252.035156 60.285156 250.113281 58.304688 C 249.085938 57.242188 248.210938 56.082031 247.472656 54.847656 C 244.914062 50.589844 243.980469 45.410156 243.980469 39.953125 C 243.980469 26.699219 254.179688 15.949219 266.757812 15.949219 C 279.34375 15.941406 289.542969 26.691406 289.542969 39.945312 Z M 289.542969 39.945312 " fill-opacity="1" fill-rule="nonzero"/><path fill="#000000" d="M 291.527344 34.558594 C 286.738281 42.371094 283.246094 30.542969 283.246094 30.542969 L 267.058594 29.09375 C 266.457031 29.039062 265.941406 28.65625 265.710938 28.097656 C 265.710938 28.097656 261 20.03125 261.011719 17.269531 C 258.429688 23.351562 249.238281 41.738281 242.660156 35.859375 C 234.902344 28.929688 245.054688 16.738281 261.550781 14.328125 C 261.550781 14.328125 261.542969 14.34375 261.535156 14.371094 C 261.628906 14.308594 261.722656 14.257812 261.824219 14.214844 C 280.054688 7.378906 296.289062 26.785156 291.527344 34.558594 Z M 291.527344 34.558594 " fill-opacity="1" fill-rule="nonzero"/><path fill="#eb8b51" d="M 248.75 42.082031 C 250.722656 46.601562 250.167969 51.210938 247.507812 52.375 C 244.847656 53.542969 241.089844 50.816406 239.109375 46.292969 C 237.125 41.773438 237.691406 37.164062 240.351562 36 C 243.011719 34.832031 246.769531 37.558594 248.75 42.082031 Z M 284.722656 42.082031 C 282.75 46.601562 283.308594 51.210938 285.96875 52.375 C 288.625 53.542969 292.382812 50.816406 294.367188 46.292969 C 296.347656 41.773438 295.78125 37.164062 293.121094 36 C 290.460938 34.839844 286.707031 37.558594 284.722656 42.082031 Z M 284.722656 42.082031 " fill-opacity="1" fill-rule="nonzero"/><path fill="#eb4c30" d="M 273.5625 105.457031 C 269.890625 111.179688 266.835938 115.132812 266.835938 115.132812 L 266.835938 115.246094 C 266.835938 115.246094 263.789062 111.296875 260.117188 105.585938 C 261.351562 101.714844 263.007812 97.28125 263.550781 95.804688 C 263.816406 95.09375 263.765625 94.292969 263.421875 93.617188 L 261.414062 89.695312 C 260.777344 88.441406 261.183594 86.917969 262.367188 86.152344 L 265.25 84.273438 C 266.15625 83.683594 267.332031 83.683594 268.234375 84.273438 L 271.125 86.152344 C 272.300781 86.917969 272.710938 88.441406 272.070312 89.695312 L 270.070312 93.617188 C 269.71875 94.292969 269.675781 95.09375 269.933594 95.804688 C 270.472656 97.296875 272.265625 101.648438 273.5625 105.457031 Z M 273.5625 105.457031 " fill-opacity="1" fill-rule="nonzero"/><path fill="#000000" d="M 257.285156 63.132812 C 260.324219 64.464844 263.652344 65.226562 266.757812 65.226562 C 270.019531 65.226562 273.585938 64.308594 276.832031 62.773438 C 276.933594 64.121094 277.128906 65.375 277.371094 66.488281 C 274.09375 68.375 270.234375 69.550781 266.757812 69.550781 C 263.523438 69.550781 260.015625 68.617188 256.960938 67.019531 C 257.132812 65.707031 257.234375 64.363281 257.285156 63.132812 Z M 276.984375 37.664062 C 275.371094 37.664062 274.066406 38.96875 274.066406 40.578125 C 274.066406 42.191406 275.371094 43.496094 276.984375 43.496094 C 278.597656 43.496094 279.902344 42.191406 279.902344 40.578125 C 279.902344 38.96875 278.597656 37.664062 276.984375 37.664062 Z M 256.6875 37.664062 C 255.074219 37.664062 253.769531 38.96875 253.769531 40.578125 C 253.769531 42.191406 255.074219 43.496094 256.6875 43.496094 C 258.300781 43.496094 259.601562 42.191406 259.601562 40.578125 C 259.601562 38.96875 258.300781 37.664062 256.6875 37.664062 Z M 271.707031 31.410156 C 271.847656 32.609375 272.933594 33.476562 274.136719 33.339844 L 279.796875 32.6875 C 281 32.550781 281.867188 31.460938 281.730469 30.257812 C 281.59375 29.058594 280.503906 28.191406 279.300781 28.328125 L 273.648438 28.980469 C 272.429688 29.117188 271.570312 30.207031 271.707031 31.410156 Z M 253.992188 32.6875 L 259.644531 33.339844 C 260.847656 33.476562 261.9375 32.617188 262.074219 31.410156 C 262.210938 30.207031 261.351562 29.117188 260.144531 28.980469 L 254.488281 28.328125 C 253.289062 28.191406 252.199219 29.050781 252.0625 30.257812 C 251.933594 31.460938 252.792969 32.550781 253.992188 32.6875 Z M 264.425781 48.273438 C 264.433594 48.257812 265.609375 46.792969 267.238281 46.730469 C 268.277344 46.6875 269.296875 47.21875 270.285156 48.300781 C 270.371094 48.394531 270.480469 48.4375 270.601562 48.4375 C 270.703125 48.4375 270.808594 48.402344 270.894531 48.328125 C 271.066406 48.164062 271.082031 47.898438 270.917969 47.71875 C 269.753906 46.4375 268.492188 45.832031 267.203125 45.863281 C 265.171875 45.941406 263.808594 47.667969 263.746094 47.742188 C 263.601562 47.933594 263.636719 48.199219 263.824219 48.34375 C 264.011719 48.488281 264.277344 48.464844 264.425781 48.273438 Z M 289.039062 42.628906 C 289.089844 42.648438 289.140625 42.65625 289.191406 42.65625 C 289.363281 42.65625 289.527344 42.554688 289.597656 42.382812 C 290.238281 40.664062 291.070312 39.609375 292 39.335938 C 292.863281 39.070312 293.578125 39.558594 293.613281 39.585938 C 293.800781 39.722656 294.074219 39.679688 294.210938 39.488281 C 294.347656 39.300781 294.316406 39.027344 294.117188 38.890625 C 294.074219 38.855469 293.0625 38.125 291.765625 38.503906 C 290.546875 38.863281 289.554688 40.066406 288.789062 42.074219 C 288.703125 42.296875 288.816406 42.542969 289.039062 42.628906 Z M 239.914062 39.574219 C 239.941406 39.558594 240.644531 39.0625 241.527344 39.328125 C 242.453125 39.609375 243.285156 40.664062 243.929688 42.371094 C 243.996094 42.542969 244.160156 42.648438 244.332031 42.648438 C 244.382812 42.648438 244.433594 42.640625 244.488281 42.621094 C 244.710938 42.535156 244.820312 42.285156 244.734375 42.074219 C 243.980469 40.066406 242.976562 38.863281 241.757812 38.503906 C 240.464844 38.117188 239.449219 38.855469 239.40625 38.890625 C 239.21875 39.027344 239.175781 39.292969 239.3125 39.488281 C 239.449219 39.671875 239.726562 39.714844 239.914062 39.574219 Z M 252.722656 89.480469 C 253.253906 90.160156 254.207031 90.375 254.988281 89.996094 L 266.304688 84.488281 C 266.585938 84.351562 266.921875 84.351562 267.203125 84.503906 L 277.578125 90.003906 C 277.851562 90.152344 278.152344 90.21875 278.441406 90.21875 C 278.914062 90.21875 279.386719 90.03125 279.746094 89.679688 L 284.464844 84.984375 C 284.636719 84.824219 284.636719 84.546875 284.464844 84.375 C 284.304688 84.207031 284.027344 84.207031 283.855469 84.375 L 279.136719 89.070312 C 278.828125 89.378906 278.359375 89.445312 277.972656 89.242188 L 267.597656 83.742188 C 267.074219 83.46875 266.449219 83.457031 265.925781 83.714844 L 254.609375 89.222656 C 254.199219 89.429688 253.683594 89.308594 253.402344 88.949219 L 249.824219 84.417969 C 249.675781 84.230469 249.402344 84.207031 249.222656 84.351562 C 249.035156 84.496094 249.007812 84.769531 249.152344 84.953125 Z M 266.519531 82.882812 C 266.585938 82.933594 266.671875 82.953125 266.757812 82.953125 C 266.835938 82.953125 266.902344 82.933594 266.972656 82.890625 C 267.359375 82.667969 276.4375 77.359375 279.019531 72.304688 C 279.128906 72.089844 279.042969 71.832031 278.828125 71.730469 C 278.625 71.621094 278.359375 71.707031 278.253906 71.917969 C 276 76.3125 268.207031 81.152344 266.765625 82.015625 C 265.316406 81.023438 257.21875 75.394531 255.886719 71.960938 C 255.800781 71.738281 255.554688 71.636719 255.332031 71.714844 C 255.109375 71.800781 255.003906 72.046875 255.082031 72.269531 C 256.644531 76.277344 266.113281 82.617188 266.519531 82.882812 Z M 269.914062 93.949219 C 269.777344 93.917969 266.542969 93.136719 263.558594 93.949219 C 263.328125 94.011719 263.199219 94.25 263.257812 94.472656 C 263.308594 94.664062 263.480469 94.792969 263.667969 94.792969 C 263.703125 94.792969 263.746094 94.785156 263.78125 94.773438 C 266.542969 94.019531 269.675781 94.765625 269.710938 94.773438 C 269.941406 94.835938 270.171875 94.6875 270.222656 94.457031 C 270.285156 94.234375 270.148438 94.003906 269.914062 93.949219 Z M 308.90625 134.144531 C 309.148438 134.144531 309.335938 133.957031 309.335938 133.714844 L 309.335938 119.398438 L 313.515625 106.761719 C 313.59375 106.535156 313.464844 106.296875 313.242188 106.21875 C 313.007812 106.140625 312.769531 106.269531 312.699219 106.492188 L 308.496094 119.199219 C 308.480469 119.242188 308.46875 119.285156 308.46875 119.335938 L 308.46875 133.722656 C 308.480469 133.957031 308.667969 134.144531 308.90625 134.144531 Z M 329.832031 136.28125 C 321.503906 134.796875 315.898438 141.625 315.839844 141.695312 C 315.695312 141.882812 315.71875 142.148438 315.910156 142.296875 C 315.984375 142.355469 316.082031 142.390625 316.175781 142.390625 C 316.304688 142.390625 316.421875 142.339844 316.507812 142.226562 C 316.5625 142.15625 321.84375 135.722656 329.679688 137.121094 C 329.910156 137.164062 330.132812 137.011719 330.175781 136.777344 C 330.21875 136.546875 330.066406 136.324219 329.832031 136.28125 Z M 306.222656 178.800781 C 306.25 178.800781 306.273438 178.808594 306.292969 178.808594 C 306.496094 178.808594 306.675781 178.664062 306.710938 178.449219 C 306.996094 176.765625 308.710938 155.457031 308.78125 154.546875 C 308.796875 154.304688 308.625 154.101562 308.386719 154.082031 C 308.152344 154.066406 307.9375 154.238281 307.921875 154.476562 C 307.90625 154.699219 306.136719 176.65625 305.863281 178.300781 C 305.835938 178.542969 305.992188 178.765625 306.222656 178.800781 Z M 222.09375 115.671875 C 222.144531 115.671875 222.1875 115.664062 222.242188 115.648438 C 222.464844 115.570312 222.574219 115.320312 222.5 115.097656 L 218.011719 102.683594 C 217.933594 102.460938 217.683594 102.351562 217.460938 102.425781 C 217.238281 102.503906 217.128906 102.753906 217.203125 102.976562 L 221.691406 115.390625 C 221.75 115.5625 221.921875 115.671875 222.09375 115.671875 Z M 213.59375 78.695312 C 213.359375 78.644531 213.128906 78.792969 213.078125 79.023438 C 213.035156 79.21875 208.589844 98.667969 193.886719 100.652344 C 193.65625 100.6875 193.484375 100.898438 193.515625 101.132812 C 193.542969 101.347656 193.730469 101.5 193.945312 101.5 C 193.964844 101.5 193.980469 101.5 194.007812 101.5 C 209.3125 99.441406 213.882812 79.410156 213.925781 79.203125 C 213.96875 78.972656 213.824219 78.75 213.59375 78.695312 Z M 315.058594 175.300781 L 310.660156 181.46875 C 310.519531 181.65625 310.5625 181.929688 310.761719 182.070312 C 310.839844 182.121094 310.925781 182.144531 311.011719 182.144531 C 311.148438 182.144531 311.277344 182.085938 311.363281 181.964844 L 315.761719 175.796875 C 315.898438 175.609375 315.855469 175.332031 315.660156 175.195312 C 315.460938 175.066406 315.195312 175.109375 315.058594 175.300781 Z M 311.414062 173.027344 L 307.980469 179.871094 C 307.878906 180.085938 307.964844 180.34375 308.171875 180.445312 C 308.230469 180.480469 308.300781 180.488281 308.359375 180.488281 C 308.511719 180.488281 308.667969 180.402344 308.746094 180.25 L 312.175781 173.402344 C 312.28125 173.1875 312.195312 172.929688 311.988281 172.828125 C 311.773438 172.726562 311.515625 172.8125 311.414062 173.027344 Z M 323.011719 173.917969 L 319.066406 172.804688 C 318.84375 172.734375 318.601562 172.871094 318.535156 173.101562 C 318.464844 173.335938 318.601562 173.566406 318.835938 173.636719 L 322.78125 174.75 C 322.816406 174.757812 322.859375 174.765625 322.902344 174.765625 C 323.089844 174.765625 323.261719 174.648438 323.3125 174.457031 C 323.382812 174.21875 323.242188 173.976562 323.011719 173.917969 Z M 205.484375 60.519531 C 205.535156 60.535156 205.589844 60.542969 205.632812 60.542969 C 205.804688 60.542969 205.964844 60.433594 206.035156 60.261719 L 208.71875 53.003906 C 208.804688 52.78125 208.6875 52.53125 208.460938 52.453125 C 208.238281 52.367188 207.992188 52.488281 207.914062 52.710938 L 205.226562 59.96875 C 205.140625 60.191406 205.261719 60.433594 205.484375 60.519531 Z M 201.023438 60.519531 C 201.074219 60.535156 201.128906 60.542969 201.179688 60.542969 C 201.351562 60.542969 201.511719 60.441406 201.582031 60.269531 L 204.5 52.566406 C 204.585938 52.34375 204.472656 52.09375 204.25 52.015625 C 204.027344 51.929688 203.777344 52.042969 203.699219 52.265625 L 200.785156 59.96875 C 200.691406 60.183594 200.800781 60.433594 201.023438 60.519531 Z M 210.4375 61.703125 C 210.460938 61.710938 210.488281 61.710938 210.511719 61.710938 C 210.71875 61.710938 210.898438 61.566406 210.933594 61.359375 L 212.203125 54.640625 C 212.246094 54.410156 212.089844 54.1875 211.859375 54.144531 C 211.628906 54.101562 211.40625 54.253906 211.363281 54.488281 L 210.09375 61.203125 C 210.050781 61.4375 210.203125 61.660156 210.4375 61.703125 Z M 210.875 64.515625 C 210.691406 64.671875 210.675781 64.945312 210.832031 65.125 L 212.304688 66.816406 C 212.390625 66.910156 212.511719 66.960938 212.632812 66.960938 C 212.734375 66.960938 212.828125 66.925781 212.914062 66.859375 C 213.09375 66.703125 213.113281 66.429688 212.957031 66.25 L 211.480469 64.558594 C 211.320312 64.378906 211.054688 64.363281 210.875 64.515625 Z M 269.425781 130.808594 C 269.425781 132.214844 268.277344 133.363281 266.871094 133.363281 C 265.464844 133.363281 264.3125 132.214844 264.3125 130.808594 C 264.3125 129.402344 265.464844 128.25 266.871094 128.25 C 268.277344 128.25 269.425781 129.402344 269.425781 130.808594 Z M 268.570312 130.808594 C 268.570312 129.871094 267.804688 129.109375 266.871094 129.109375 C 265.933594 129.109375 265.171875 129.871094 265.171875 130.808594 C 265.171875 131.742188 265.933594 132.507812 266.871094 132.507812 C 267.804688 132.507812 268.570312 131.742188 268.570312 130.808594 Z M 269.359375 142.714844 C 269.359375 144.121094 268.207031 145.273438 266.800781 145.273438 C 265.394531 145.273438 264.246094 144.121094 264.246094 142.714844 C 264.246094 141.308594 265.394531 140.160156 266.800781 140.160156 C 268.21875 140.160156 269.359375 141.308594 269.359375 142.714844 Z M 268.5 142.714844 C 268.5 141.78125 267.738281 141.015625 266.800781 141.015625 C 265.867188 141.015625 265.101562 141.78125 265.101562 142.714844 C 265.101562 143.652344 265.867188 144.414062 266.800781 144.414062 C 267.738281 144.414062 268.5 143.652344 268.5 142.714844 Z M 269.230469 154.625 C 269.230469 156.03125 268.078125 157.179688 266.671875 157.179688 C 265.265625 157.179688 264.117188 156.03125 264.117188 154.625 C 264.117188 153.214844 265.265625 152.066406 266.671875 152.066406 C 268.078125 152.066406 269.230469 153.207031 269.230469 154.625 Z M 268.371094 154.625 C 268.371094 153.6875 267.609375 152.925781 266.671875 152.925781 C 265.738281 152.925781 264.972656 153.6875 264.972656 154.625 C 264.972656 155.558594 265.738281 156.320312 266.671875 156.320312 C 267.609375 156.320312 268.371094 155.558594 268.371094 154.625 Z M 264.054688 166.523438 C 264.054688 165.117188 265.207031 163.964844 266.613281 163.964844 C 268.019531 163.964844 269.167969 165.117188 269.167969 166.523438 C 269.167969 167.929688 268.019531 169.078125 266.613281 169.078125 C 265.195312 169.078125 264.054688 167.929688 264.054688 166.523438 Z M 264.914062 166.523438 C 264.914062 167.457031 265.675781 168.222656 266.613281 168.222656 C 267.546875 168.222656 268.3125 167.457031 268.3125 166.523438 C 268.3125 165.585938 267.546875 164.824219 266.613281 164.824219 C 265.675781 164.824219 264.914062 165.585938 264.914062 166.523438 Z M 269.195312 178.429688 C 269.195312 179.835938 268.046875 180.988281 266.636719 180.988281 C 265.230469 180.988281 264.082031 179.835938 264.082031 178.429688 C 264.082031 177.023438 265.230469 175.875 266.636719 175.875 C 268.046875 175.875 269.195312 177.023438 269.195312 178.429688 Z M 268.335938 178.429688 C 268.335938 177.496094 267.574219 176.730469 266.636719 176.730469 C 265.703125 176.730469 264.941406 177.496094 264.941406 178.429688 C 264.941406 179.367188 265.703125 180.128906 266.636719 180.128906 C 267.574219 180.128906 268.335938 179.367188 268.335938 178.429688 Z M 269.160156 190.414062 C 269.160156 191.824219 268.011719 192.972656 266.605469 192.972656 C 265.195312 192.972656 264.046875 191.824219 264.046875 190.414062 C 264.046875 189.007812 265.195312 187.859375 266.605469 187.859375 C 268.019531 187.867188 269.160156 189.007812 269.160156 190.414062 Z M 268.300781 190.414062 C 268.300781 189.480469 267.539062 188.71875 266.605469 188.71875 C 265.667969 188.71875 264.90625 189.480469 264.90625 190.414062 C 264.90625 191.351562 265.667969 192.113281 266.605469 192.113281 C 267.539062 192.113281 268.300781 191.351562 268.300781 190.414062 Z M 243.285156 82.429688 C 243.226562 82.199219 242.992188 82.058594 242.769531 82.113281 C 242.539062 82.171875 242.402344 82.402344 242.453125 82.625 C 246.226562 98.136719 260.675781 119.472656 261.859375 121.207031 L 261.859375 189.285156 C 244.984375 189.644531 226.359375 185.859375 226.171875 185.824219 C 225.9375 185.773438 225.707031 185.929688 225.664062 186.160156 C 225.613281 186.390625 225.765625 186.617188 226 186.667969 C 226.179688 186.699219 243.25 190.167969 259.558594 190.167969 C 260.332031 190.167969 261.097656 190.160156 261.859375 190.140625 L 261.859375 203.171875 C 261.859375 203.414062 262.046875 203.601562 262.289062 203.601562 C 262.527344 203.601562 262.71875 203.414062 262.71875 203.171875 L 262.71875 121.070312 C 262.71875 120.984375 262.691406 120.898438 262.640625 120.828125 C 262.484375 120.617188 247.164062 98.371094 243.285156 82.429688 Z M 304.753906 187.25 C 304.988281 187.199219 305.132812 186.976562 305.089844 186.742188 C 305.039062 186.511719 304.816406 186.367188 304.585938 186.410156 C 304.429688 186.445312 288.679688 189.6875 271.777344 189.285156 L 271.777344 121.207031 C 273.019531 119.386719 288.945312 95.90625 293.664062 78.6875 C 293.722656 78.457031 293.59375 78.226562 293.363281 78.164062 C 293.140625 78.105469 292.898438 78.234375 292.839844 78.464844 C 287.984375 96.148438 271.167969 120.582031 270.996094 120.828125 C 270.945312 120.898438 270.917969 120.984375 270.917969 121.070312 L 270.917969 203.171875 C 270.917969 203.414062 271.109375 203.601562 271.347656 203.601562 C 271.589844 203.601562 271.777344 203.414062 271.777344 203.171875 L 271.777344 190.132812 C 272.753906 190.160156 273.734375 190.167969 274.703125 190.167969 C 290.539062 190.183594 304.601562 187.285156 304.753906 187.25 Z M 294.820312 208.714844 C 294.589844 208.742188 294.417969 208.957031 294.445312 209.195312 L 300.132812 256.726562 C 300.15625 256.9375 300.347656 257.101562 300.558594 257.101562 C 300.578125 257.101562 300.59375 257.101562 300.613281 257.101562 C 300.84375 257.078125 301.015625 256.863281 300.988281 256.621094 L 295.300781 209.09375 C 295.265625 208.851562 295.050781 208.679688 294.820312 208.714844 Z M 280.664062 211.777344 C 280.425781 211.785156 280.246094 211.992188 280.261719 212.234375 L 282.785156 259.324219 C 282.792969 259.554688 282.980469 259.726562 283.214844 259.726562 C 283.222656 259.726562 283.230469 259.726562 283.238281 259.726562 C 283.480469 259.71875 283.660156 259.511719 283.640625 259.273438 L 281.121094 212.179688 C 281.101562 211.941406 280.914062 211.761719 280.664062 211.777344 Z M 265.652344 211.777344 C 265.410156 211.777344 265.222656 211.96875 265.214844 212.199219 L 264.5625 260.679688 C 264.5625 260.921875 264.75 261.109375 264.984375 261.117188 C 264.984375 261.117188 264.984375 261.117188 264.992188 261.117188 C 265.222656 261.117188 265.421875 260.929688 265.421875 260.695312 L 266.070312 212.214844 C 266.082031 211.976562 265.890625 211.777344 265.652344 211.777344 Z M 249.761719 211.777344 C 249.515625 211.753906 249.324219 211.941406 249.308594 212.179688 L 246.382812 259.273438 C 246.367188 259.511719 246.546875 259.710938 246.785156 259.726562 C 246.792969 259.726562 246.804688 259.726562 246.8125 259.726562 C 247.035156 259.726562 247.222656 259.554688 247.242188 259.324219 L 250.167969 212.234375 C 250.175781 211.992188 249.996094 211.796875 249.761719 211.777344 Z M 229.550781 257.101562 C 229.765625 257.101562 229.945312 256.949219 229.980469 256.726562 L 235.992188 209.1875 C 236.019531 208.957031 235.855469 208.742188 235.625 208.707031 C 235.394531 208.679688 235.179688 208.84375 235.144531 209.074219 L 229.128906 256.613281 C 229.105469 256.84375 229.265625 257.058594 229.5 257.09375 C 229.515625 257.101562 229.53125 257.101562 229.550781 257.101562 Z M 211.972656 41.550781 C 212.039062 41.59375 212.125 41.617188 212.203125 41.617188 C 212.347656 41.617188 212.484375 41.550781 212.5625 41.421875 C 213.488281 39.960938 216.921875 39.566406 218.164062 39.542969 C 218.40625 39.53125 218.585938 39.335938 218.585938 39.105469 C 218.578125 38.863281 218.363281 38.683594 218.148438 38.683594 C 217.949219 38.691406 213.214844 38.820312 211.84375 40.964844 C 211.714844 41.15625 211.773438 41.421875 211.972656 41.550781 Z M 311.867188 311.761719 C 311.746094 311.792969 299.410156 315.628906 286.671875 314.367188 C 286.449219 314.351562 286.226562 314.515625 286.199219 314.753906 C 286.171875 314.988281 286.34375 315.199219 286.585938 315.226562 C 288.414062 315.40625 290.222656 315.484375 291.988281 315.484375 C 302.78125 315.484375 312.015625 312.617188 312.117188 312.585938 C 312.339844 312.515625 312.46875 312.273438 312.398438 312.042969 C 312.332031 311.8125 312.089844 311.691406 311.867188 311.761719 Z M 246.5625 315.125 C 246.390625 315.132812 229.027344 316.136719 221.398438 312.542969 C 221.183594 312.4375 220.929688 312.53125 220.824219 312.746094 C 220.722656 312.960938 220.816406 313.21875 221.03125 313.320312 C 226.066406 315.699219 234.914062 316.136719 240.773438 316.136719 C 244.015625 316.136719 246.347656 316 246.605469 315.980469 C 246.847656 315.964844 247.027344 315.765625 247.007812 315.527344 C 247.007812 315.296875 246.804688 315.105469 246.5625 315.125 Z M 246.5625 315.125 " fill-opacity="1" fill-rule="nonzero"/><path fill="#ffffff" d="M 257.605469 52.410156 L 276.734375 52.410156 C 276.734375 52.410156 275.421875 59.351562 267.171875 59.351562 C 258.917969 59.351562 257.605469 52.410156 257.605469 52.410156 Z M 257.605469 52.410156 " fill-opacity="1" fill-rule="nonzero"/><path fill="#000000" d="M 267.160156 59.78125 C 258.652344 59.78125 257.191406 52.566406 257.175781 52.496094 C 257.148438 52.367188 257.183594 52.238281 257.269531 52.144531 C 257.355469 52.050781 257.476562 51.988281 257.605469 51.988281 L 276.734375 51.988281 C 276.863281 51.988281 276.984375 52.050781 277.0625 52.144531 C 277.148438 52.238281 277.171875 52.375 277.15625 52.496094 C 277.140625 52.566406 275.671875 59.78125 267.160156 59.78125 Z M 258.152344 52.839844 C 258.632812 54.390625 260.582031 58.914062 267.160156 58.914062 C 273.742188 58.914062 275.699219 54.390625 276.167969 52.839844 Z M 258.152344 52.839844 " fill-opacity="1" fill-rule="nonzero"/></svg>